<svg xmlns="http://www.w3.org/2000/svg"><defs><clipPath id="a"><rect data-name="rus 4" width="50%" height="651" transform="translate(85 216.399)" fill="#fff"/></clipPath></defs><g data-name="map" transform="matrix(1 0 0 .731 283.698 -209.973)" clip-path="url(#a)"><path class="region" d="M403.066 560.996l3.168 3.022 1.44-3.13h3.456l1.44-1.835 1.3-2.158.432-3.777 2.16-1.619.432-2.266 3.6-2.374-2.016-1.511 2.016-1.4 2.16-.863v-2.489l2.016-.863 2.3-1.727 3.312-1.079 1.008-2.59-2.448-1.4-.864-1.511 1.872-1.3v-2.266l1.728-1.4 4.032-.216-1.008-3.561 1.3-3.238-1.584-2.59-.144-2.59-3.168-2.374 1.584-2.374-2.88-2.59-5.616-.108-4.032 4.1-5.04 1.4-.288 2.7-2.592 2.374-6.048.216-2.3 2.158v3.777l-5.76 2.7-3.888.648 1.152 3.238-2.592 3.669-4.608 3.346-.72 2.59 2.16 3.561 3.456 2.482-1.3 2.914-1.44 2.7 4.608.863 4.032 2.914v6.151z" fill="#fff"/><path class="region" d="M394.424 564.125l-1.728 2.7-4.752 1.079-2.016 3.993-2.592 4.641-1.44 4.317.288 3.13-2.448 1.187 3.6 2.7-1.44 3.993-1.152 3.561 3.6 1.511v3.13l2.16-1.727 2.448-2.914 3.168.216 3.6-1.4 3.168-.54 3.6-2.59h3.168l2.448 1.835.72 2.158 3.456.216 1.152-.863 2.016.432 3.456 2.05 2.592-1.619h3.312l4.464-.648 1.728-2.05 3.168-2.374 4.32-1.4 1.3-2.914-1.3-1.943-2.88-1.619-1.728-2.7-1.872-1.511v-1.835l-4.176-.863-3.744.863-4.752-.971-2.3-1.727-3.6-1.511-2.736-2.05-.864-3.669-3.168-1.3-.432-1.079-3.17-3.021-4.176.324z" fill="#fff"/><path class="region" d="M376.138 596.501l-4.752-1.187-1.44-2.7-2.736-2.158-3.6.108-1.152 3.238-3.168 2.7-4.463 3.454-2.16 2.914 2.16 2.7 2.448 1.835 3.312-2.05 2.16 2.374 2.592 2.158 3.6.324 2.592 1.943 2.016 3.669-.576 2.806-1.584 4.856 2.592.108 1.728-1.835 3.456-.863 2.016 1.187h3.024l2.592-1.943h2.592l.576-1.619-.72-1.619 2.3-.647h2.592l2.016 1.4 1.3-.971.72-2.266 1.44-1.079-.432-2.59-2.3-1.727v-2.158l1.728-1.4v-2.59l1.008-2.7-1.872-1.4.288-1.835-2.3-2.7-3.6 1.4-3.168-.216-2.448 2.914-2.16 1.727v-3.13l-3.6-1.511z" fill="#fff"/><path class="region" d="M367.787 639.56v-3.777l-2.736-3.673-2.592-3.022 2.448-1.4 1.44-2.7h2.88l2.16-1.511 2.592.108 1.728-1.835 3.456-.863 2.016 1.187h3.024l1.3 1.511 2.592.755 1.728 1.079v2.914l2.736.54.72 1.727 2.592.863.72 3.993 2.592 3.345.864 4.1 2.592.432 2.016 1.4v3.022l3.024.432 3.312 1.619-2.88 2.158-3.6-.971-2.3 1.835v2.59l-2.592.863-1.008-2.806-3.744-2.7-5.328-2.59-3.456.54-6.624-.971v-1.943l-3.464-2.801-1.584 1.3h-4.176l-4.9-.863z" fill="#fff"/><path class="region" d="M387.368 678.95l-1.44-4.209-3.6-1.619-3.744-3.238 1.44-3.777-1.44-5.5-4.608-2.59-5.328-3.022-1.584-4.1-3.6-2.158-1.3-2.59 3.168-2.7 4.9.863h4.176l1.584-1.3 3.456 2.806v1.943l6.624.971 3.456-.54 5.328 2.59 3.744 2.7 1.008 2.806 1.008 2.374-2.16 1.295 3.024 2.266-1.872 2.59h-2.448v3.561l.864 2.59-3.744 1.4v3.13l-2.736.108.72 2.266-4.176 1.619z" fill="#fff"/><path class="region" d="M388.091 679.49l4.176-1.619-.72-2.266 2.736-.108v-3.13l3.744-1.4-.864-2.59v-3.561h2.449l1.872-2.59-1.728-1.4-1.3-.863 2.16-1.295-1.008-2.374 2.592-.863v-2.59l2.3-1.835 3.6.971 2.88-2.158 4.176.432 1.872 2.806 4.32 1.079-.864 3.238 2.88 2.158 3.744.324 3.456 3.561 2.448 1.727-1.3 2.806 2.88 2.158 4.608 1.4 1.584 2.266 2.736 2.05 1.44 3.561 2.016 3.669-1.872 1.3h-4.752l-3.744-1.511-.864-1.943-3.456-.54-3.312 2.266h-6.912l-1.728 4.317-5.616 4.209h-6.192l-2.16 1.619h-3.312l-1.728-1.727h-4.166v-2.266l-1.872-1.4-4.032-1.4v-3.777zm-53.279 100.688l-3.6-1.295-5.184-2.7-1.728-4.317-3.6-4.1-1.15-3.56 2.88-2.266 3.456-.324 2.3-1.835h2.448l1.3 2.158 2.16 2.374h4.606l3.6-3.453 2.88.755v2.806l2.592 1.3.72 2.266 1.3 1.511h-4.181l-1.3 1.619 2.016 1.4 1.152 1.619-1.3 2.158-3.312 1.079-2.3-.216-2.88 2.158z" fill="#fff"/><path d="M343.452 792.801l1.008 5.72 3.312 2.482 5.328.54 3.024 2.266.864 1.943 2.3-2.914h3.6l.292-1.937-1.008-2.806 1.008-4.209 3.312-.971 4.9.108-1.008-3.022-4.608-3.13-1.872 1.187v2.158l-1.728 1.3-4.32.216-1.44 1.079-2.448-1.511h-3.028l-2.16.971-2.016-.324z" fill="#fff"/><path d="M370.955 800.251l-2.3 3.669-2.736 3.453-3.744 1.943-1.152-3.237-4.032-.324 2.3-2.914h3.6l.288-1.943-1.008-2.806 1.008-4.209 3.312-.971 1.584 2.374 3.888 2.158zm34.847-8.311l-2.448 1.942v2.914l2.592 1.942 1.44 3.345-1.3 3.453-1.008 3.13-2.736 2.05v1.295l-2.448 1.619-5.328 6.475v5.072l1.44 6.043-.864 4.748.432 5.72-5.76 1.943-3.888-1.187-5.472 1.4-5.328-.863-.72-3.453-2.592-5.935-.432-4.317-3.888-1.943v-2.365l-1.872-3.777-3.454-3.242 2.16-2.7 4.176-.432 2.592-1.511 4.032.216 2.448-1.4 4.032 1.727 1.44-4.209 4.176-3.777 4.464-1.835 2.448-.648-.432-4.1-4.9-.324-2.736-2.7-3.456-2.806 1.44-2.806-2.448-.971v-1.505h2.88l1.728-1.187-1.144-1.513 1.872-1.295 3.168.755 3.6-.863 3.744-1.835 3.312 1.727 1.584 1.942 2.592.648 1.152 2.266z" fill="#fff"/><path class="region" d="M408.826 792.589l5.04-1.079h4.464l4.176-3.561 3.312-1.079v-2.59l-2.592-1.295-3.312-.108-.72-1.4 7.92-4.1v-1.727l-1.584-1.079v-2.158l-1.728-1.835 1.872-1.4 2.736.863.432 1.4h1.728l.432-2.266 5.04.324 1.584-2.914-2.448-1.835 1.728-4.533 2.736-1.187.72-2.05.576-2.266-5.328-.108-2.3-2.374-.432-3.453.72-2.7.72-3.022-2.88-1.4-1.3-3.561-4.32-.755-2.592-1.835v-2.266l-2.3-.648-1.728 3.561-2.448.755-2.448-1.835-2.88.863-2.592-1.943-4.32 2.914v3.885l3.024.108 3.6-1.4v2.7l-2.448 3.561-4.9 2.7h-5.472l-5.04 3.993-2.88-.54-1.152.863-2.592-.755-1.872-1.4-1.728-5.4-2.88-.54-2.3-1.727v-2.374l-1.3-2.59h-2.736v1.829l-1.728 1.295h-4.464l-2.3-1.295-3.024 1.835 2.736 1.079 1.008 2.266h2.448l2.016-.54 1.008 2.374 2.016 1.511 4.176-.648 2.736.863.432 2.7 2.3 1.943.72 2.266 2.3 1.727 1.584 3.238-1.728 2.374 1.872 2.482 2.448 1.835 1.872 1.943v2.152l2.592 1.835.576 2.806 2.016 2.266v4.1l3.312 1.727 1.584 1.942 2.592.648 1.152 2.266-.288 3.13zm235.145-26.764l1.584 2.59 3.312 2.482 2.3 1.727 1.008 3.022 3.312 2.59-3.312 3.345-3.168 2.374h-5.328l-5.328.216-2.736-2.05-2.016-2.914h-2.448l-2.592 1.943h-4.176l-4.608-3.453-1.008-2.05-3.456-2.7v-4.532l-3.024-2.266h-5.472l-4.608 1.3-1.728-2.7-4.464-2.7-4.176-1.619-5.472 1.943-5.04.54-4.032-.863-2.88-4.209-4.176-2.7-2.88 3.669h-3.024v-2.914l2.88-2.158-2.016-3.022-2.3-4.748-1.008-4.856-3.6-3.238-5.76-1.619-1.728-3.022-3.024-2.374-5.76.755h-3.456v-3.453l-1.584-3.561.144-2.05h8.5l2.448-3.777 4.608-2.482 2.736.54 1.44-2.374 6.48-.863 3.312-5.72 5.472-2.266 4.176-3.13 1.584-5.072h3.888l4.032 3.022-2.736 2.158 2.448 1.727 1.44 1.942-.144 4.641 1.728 1.4-1.3 4.964 2.736 1.3 3.168 2.374 2.016 3.993v3.885l1.584 2.482-1.3 2.482v3.453l-1.008 1.727 2.736 1.187 2.592-1.835h4.032l1.44 1.942-1.44 2.7-3.888 1.187.864 1.4 2.592.432-.72 3.561-1.584 1.187.864 2.7h2.3l.432 1.619 2.88 2.158 2.88-1.079 2.16-1.619 2.448.971 1.008 1.834 2.448 1.4 3.168.647 3.024-1.835 2.016-3.561h8.5l2.88-.755 3.888 1.295h2.448l1.584 2.266-1.152 2.266-4.464 1.619.288 2.266h2.593z" fill="#fff"/><path class="region" d="M695.089 743.485l-6.048-.863-4.32.863-3.744-2.482-5.616-2.158h-5.04l-1.584 3.885 1.584 2.7-3.312 2.59 2.592 1.187 2.736 2.05 3.168 2.374-3.024 2.266h-3.312l-4.032-3.022-6.336.108-4.032 1.295 1.728 4.533-1.728 3.238-4.032.863-4.9-.863-1.872 3.777-.72-2.914h-2.592l-.288-2.266 4.464-1.619 1.152-2.266-1.576-2.263h-2.45l-3.888-1.295-2.88.755h-8.5l1.44-1.835 3.744-1.295.72-2.7 3.168-4.425h2.592v-3.13l3.168-3.13v-2.051l4.9-3.669 3.744-.971v-1.3l4.032-.216 1.728 1.727h2.736v-3.453l-1.584-3.993-5.9-1.4-2.592 1.3-5.9-.432-3.024-3.669-.72-4.856-2.3-1.727-1.008-3.453 5.184-2.914 3.6.863 4.032 1.4 2.592 2.05v2.482l5.04 1.295 3.168-2.374 5.472-.971v-2.158l2.88-3.993 1.152-2.806-1.008-3.022 3.312-.971 4.032 2.05 1.3 1.835 4.32 1.079.864 1.3 3.168.324 3.312 2.374 3.024-2.158 3.456 1.4 2.592 1.943 2.448 1.943.144 3.993.72 4.533-2.3 2.7h-4.032l-2.448 1.727 1.44 3.453-2.3 1.727h-3.19l-.864 2.482 2.736 2.05 3.024.108.72 1.619h4.752l1.872 3.561-3.456 2.7zm143.708 32.805l-4.032 3.022-6.768 1.4-5.76 2.374-2.592-2.914-5.04 1.835h-4.032l1.44-4.856 5.76-2.051v-2.482h-4.9l-4.32-1.942-2.592 1.942-4.752-1.079 1.584-4.209-3.6-2.59-4.752 2.158-5.328-1.079-1.3-3.238 3.024-2.158v-3.453l1.152-2.482-1.872-4.533-3.6-1.3v-2.158l1.3-2.05 2.456-1.825v-2.482l2.016-.216 2.592-1.943.864-1.835v-3.13l6.048-4.533 4.608-.648 1.728-1.3v-2.374l-3.6-1.511-1.152-2.05-2.3-1.727-3.168-1.187v-2.05l3.744-1.4-1.584-3.561.288-2.914 3.456-2.7 1.584-2.158 3.6-1.835 3.888 2.806-2.448 1.727v2.158l3.312.863 4.176.971 2.592.863 3.168 1.511h4.752l1.728-1.727 4.032 1.619 3.6.755h5.76l4.752-1.619 3.888-2.914 2.16-2.266.72 1.727-1.152 2.266-1.44 2.482v3.561l2.736 2.158-.864 4.533 2.736 3.993 1.44 3.13v8.633l-3.888 2.914.864 1.943v2.7l-1.872 1.3-3.312-.863-3.168.863-4.464 3.993-2.736 4.964 1.152 6.367v3.561l2.448 1.835v2.158l-2.736 1.942z" fill="#fff"/><path class="region" d="M862.844 791.833l-2.592-1.943-2.736-4.425-3.024-2.266-4.176-1.187v-3.238h3.456l2.88-2.914-1.3-2.482h-4.32l-3.6 2.7-5.04.108-3.6.108 2.016-4.317 2.736-1.943v-2.158l-2.448-1.835v-3.561l-1.152-6.367 2.736-4.964 4.464-3.993 3.168-.863 3.312.863 1.872-1.3v-2.7l-.864-1.943 3.888-2.914v-8.633l5.184.971 2.88 2.158h6.048l6.48.648 5.328 2.158 6.48 2.05 4.032 3.022 3.312 2.374 4.752 4.964h10.368l4.176 4.317h4.9l5.76-1.079 3.456-2.59 3.024 1.079.864 4.641v3.348l1.872 1.4-2.16 1.727 2.592 1.943 3.024-2.266 3.168-2.7 6.048.324.72 5.935 1.728 2.482 1.152 5.4-.864 7.77 3.024 3.345-7.92 3.345h-4.608l-3.312 1.943-3.168-1.4-3.312 2.482-2.88-2.158-4.608 3.453-2.016 4.1-3.168 1.079-3.312-3.561h-2.736l-2.16-2.374v-2.59l-4.32-3.238-2.16-1.727-5.04.216-6.912 1.727-7.056 3.993h-7.92l-4.752 1.4-3.6.971-2.592-2.05-1.728 1.835z" fill="#fff"/><path class="region" d="M937.29 841.475l-3.456-2.266-4.464-1.511-2.88-2.266h-6.192l-3.024 2.266-5.9.755-2.448-1.835-5.328.755-2.88-2.158-2.592-1.943v-2.7l-2.592-2.374-3.888.863-2.592 4.209-5.328.648-3.168-4.641-1.584-4.1-1.3-4.749-4.032-5.4v-4.305l-3.888-2.7v-5.935l-2.88-7.123-4.032-3.13 2.88-.971 2.592-2.158 2.592 2.051 8.352-2.374h7.92l7.056-3.993 6.912-1.727 5.04-.216 6.48 4.964v2.59l2.16 2.374h2.741l3.312 3.561 3.168-1.079 2.016-4.1 4.608-3.453 2.88 2.158 3.312-2.482 3.168 1.4 3.312-1.943h4.608l7.92-3.345 2.88 4.209h4.32l3.168 4.425 2.592 2.051 1.008 3.345 3.744 1.727h3.6l.144 2.482-3.6 1.187 2.592 3.345v2.806l1.44 3.022-3.888 1.3-2.16 2.914 2.592 1.943-1.872 2.05h-2.454l-2.3 2.266-4.608-2.158-2.88 2.158v2.7l-2.592 2.05-3.168 2.482h-4.032l-6.336 1.727-5.04 1.187-2.3 1.727 3.168 2.482 2.016 1.511v3.238z" fill="#fff"/><path class="region" d="M1010.44 858.095l-5.616.971-4.032 2.914-7.2-.108-5.9 2.482-3.172 2.371-6.912-.971-2.16-2.7-2.736-3.561-1.3-3.669-3.744 2.806-6.192 1.727-5.76-1.4-6.48-1.3v-4.317l-5.04-2.266-1.872-3.238-4.176-2.05-.864-4.317 4.608-.216v-3.228l-2.016-1.511-3.168-2.482 2.3-1.727 5.04-1.187 6.336-1.727h4.032l5.76-4.533v-2.7l2.88-2.158 4.608 2.158 2.3-2.266h2.448l1.872-2.05-2.592-1.942 2.16-2.914 3.888-1.295 4.608 3.13h4.752l4.032 1.619h2.448l.144 3.238-3.024 2.158-3.456 2.7 1.008 3.453-2.3 1.727 4.9 3.777h3.888l2.448-3.561h2.448l.72 4.1 1.584 3.993 5.472 4.1 4.464 3.13-1.008 2.59-4.032.648-1.728 1.4 3.6 2.7v2.914z" fill="#fff"/><path class="region" d="M1127.22 818.056l-3.744 2.806-3.024 4.533-3.168 2.482-1.008 4.64 3.024 2.7v3.993l4.176 3.238v4.317l-5.616 2.7-5.472 4.1h-11.52l-6.48-1.3-6.624.971-4.9-1.079-6.912-1.835-3.882-2.907-4.464-3.345-5.616-1.3-6.48 1.943-4.032-3.022-5.184-1.727-4.176 3.13h-5.328l-1.584 3.777h-6.336l-7.92 3.777-4.752 3.669h-4.752l-1.008 3.777-1.728-2.59v-2.914l-3.6-2.7 1.728-1.4 4.032-.648 1.008-2.59-4.464-3.13-5.472-4.1-1.579-3.994-.72-4.1 2.16-1.619 4.176.755 4.608.324 4.608-3.453v-3.993l5.184-2.05 4.176 3.13 5.472 1.511h5.472l4.9 1.835h3.744l5.04-1.619 7.056-4.532 5.04-1.079v-4.643l3.6-2.7v-2.914l5.472-1.079 1.44-6.475 2.448-1.835 6.192.863 4.608-3.453 5.328.216 2.016-1.511 2.736.648 1.152-2.266h4.32l3.6 2.05 5.472.54 4.464 3.237 3.024 1.079h5.328l2.16-1.619 2.448 1.835 2.016 1.511-2.88 2.158v3.13l-2.46 1.945.864 3.022 2.3 1.727zm411.391-63.131l-2.736 2.05-5.472-1.079-4.608-.863-6.912.755h-6.624l-2.592 1.943-7.2 1.943-7.2-1.079-3.024-4.425-3.456-2.59-4.032-2.482-4.608-3.453-5.76-.755-2.448-4.317-5.472-3.238-3.888-2.914-5.328-1.079-1.872-3.777-4.752-1.619-2.88-2.158-9.648-.755h-5.04l-5.76 2.374-7.2-.863-5.472 1.4h-6.048l-8.208 4.533-3.888 2.914-3.456-4.532-1.584-2.374h-4.032l-1.152-3.885-2.016-2.374 3.6-1.619v-1.187h-1.872l-3.312-2.59-2.592-.324.576-4.641-1.584-2.05-1.728-3.561-3.888-1.4-2.736 2.914-2.88-.863-.288-3.022-1.872-1.4-2.88-.54-2.88 2.158-1.44 2.7-4.9-.971-1.584-2.266 2.88-2.7-1.728-2.05-3.312.863-4.176-.863-2.88-2.158v-2.158l4.176-3.13 4.608-2.914h4.608l2.16-1.619 2.592 1.943 3.6.54 1.584-1.187h4.752l2.016 1.942h3.024l.864-2.7 6.048.863 2.16-1.619 4.32-.647 4.032 1.4 5.04 3.777 3.888-1.3 4.32-.755 2.016-2.05 3.312 1.079 2.448-1.835h2.736l2.592 1.942 9.5-7.123 5.184.648v-2.482l6.48-1.835 4.608.648 4.752-2.266-.288-3.669 7.776-3.453 7.344-4.533 1.872.863 3.024-1.187 2.736-2.59 3.888-.432 3.312-2.482 4.32-.647 4.32 1.835-1.584 3.13.144 2.482-3.024 3.13v5.5l-1.584-.108-1.3 2.482 2.592 3.238v2.482l-2.88 1.187-1.728 3.022 3.024 2.806 5.9.648 2.016-1.4 3.744-.971 6.624 6.8 2.88-1.942 3.024.108 4.464-4.856 4.608-1.295 1.584-1.187-.984-3.342 1.3-2.806 4.608-.648 2.448-1.835 2.592-3.346 4.464-.324 4.176 3.13 1.3 5.5 4.464 2.266-1.728 4.425-7.776 2.158-4.176-.108-1.872 1.943 4.9 3.669.144 2.374-4.32 3.669-.576 5.18-4.032 2.806-.144 2.482-3.312 2.914 2.88 3.238-2.3 3.13 1.008 7.231 2.592 1.942h2.448l2.736 3.13 2.016-1.511 5.184.432.864 2.806 4.464 2.482.432 2.59 2.016.432 2.736 1.511.144 4.317-2.3.755 1.008 2.806-1.152 2.158.432 3.993-5.04-1.4z" fill="#fff"/><path class="region" d="M1592.182 738.953l-5.76 2.374-1.44 3.561-3.888 4.64-4.32 4.1 1.872 4.533-5.04 3.022-5.04 2.158-4.32 1.079-1.152 3.238h-4.608l-4.464-1.835-3.312-.863v-4.1l-3.888-2.59-3.168-2.374-.432-3.993 1.152-2.158-1.008-2.806 2.3-.755 2.592.324 2.592-2.914 2.16-1.619-.432-3.777 3.888-.432 4.032.54 5.472-1.942 3.888 1.4 4.752 4.209 3.024-3.13 6.624-1.079 2.448-3.345 4.9-.432 4.176-1.187-.432 2.914 1.584 1.187-.576 2.05h-4.176zm60.479-11.655l2.592 5.18 2.016 5.828 1.44 5.18 1.44 7.015v6.8l-1.44 3.669v15.648l-1.44 6.475 1.44 6.583-.576 8.633v4.209l-4.752 5.936-3.168 4.964-3.6 5.072h-3.024l-6.048 1.835-5.04 2.158-3.456-1.079v-2.482l-1.872-1.3-1.728 3.022v3.349l-2.016-1.511-3.168-2.374v1.835l-1.008 4.425 1.008 3.13-1.3 3.453-2.016 1.511v4.748l-4.6-.217-1.872-1.4 1.584-4.209 2.88-4.317v-3.561l-2.451-4.213-5.184-3.885-2.592-1.943-2.16-4.209-4.608-3.345-4.32-1.079-.144-3.561 3.024-2.266 2.592-1.943v-3.561l3.456-2.59 3.744-1.4 4.032.971 3.456-2.59 2.16-3.238-3.888-4.532 2.016-3.777-2.448-3.885-.432-4.209-3.456-3.345 1.008-2.914-2.592-3.453 4.608-.432v-1.514l-2.592-1.943.576-3.453 4.176-4.317 3.456.755.864.647h3.312l1.152-1.295 4.9.54.432-1.079 4.9-.539 3.888-3.669v-5.072l-2.88-.647.72-2.914 5.76-1.619 1.44-2.482.576-3.561-1.872-3.453-1.872-.324-1.44 2.158-4.032.324-1.152-2.482-4.464-.432-.72-2.482 4.752-3.022 1.728-4.856 2.88-.324 3.312 1.943 2.592 1.943 3.456-.108 1.44 2.158-1.152 1.943 4.176 2.158 3.888-2.482zm-40.896-308.431l3.024 2.266v5.72l2.448 4.317.432 6.8-1.728 4.1-1.872-3.561-4.32-1.619v4.533l-3.6-2.7-2.448-1.835-1.872-3.022-6.768-4.641 1.872 3.993-1.872 4.317h-6.48v2.914l-2.16 5.936-2.592 2.374.288 7.878 4.32 2.158-.72 5.072 4.32 5.072v5.4l1.3 7.123 4.032 3.022v3.238l3.312 2.482 3.168-.324 2.736-1.943 2.016-1.511h3.6l-.288 3.453-3.888.863v4.856l-7.2.863 1.728 6.259-.72 2.7-4.608 1.4v3.777l-1.728 3.453-4.608.216-2.16-1.619v-2.374l1.008-2.374 4.032-.971-1.872-1.4-4.32 1.3-4.608.54v1.619l-6.768 2.374-3.312 3.022-3.888.755-3.168 2.374-1.152 2.7 1.152 3.453 2.592 1.943-3.168 2.482-5.04-1.4 1.584 3.885-3.744 2.806-3.312 2.374-1.152-2.806-5.184-3.885h-2.88l-2.16 1.511-2.879-1.089-4.176-.108-3.6 3.238-3.312.108-2.736-3.022v-4.1l4.464-1.943-3.6-3.669v-2.7l-3.312-.863-5.472-2.59-3.312-1.187-9.216-.432-4.9 4.317-3.888-.108.72-3.345-3.6-2.7-.864-2.158-3.168-2.374-5.616-2.158-1.44-2.59-3.888-3.885v-2.158l-2.016-.647.864-3.561 2.16-1.619-3.312-1.511.72-3.13 6.336-1.943v-1.727l4.752.108-.432-3.993-3.6-.755-2.448-2.374 3.024-2.158h3.024v-2.806l3.024-1.619v-2.05l3.744-.648 2.3 2.05 3.168-.324 1.584-2.59-1.008-2.266 3.312-3.885 1.008-2.59 3.312-.432v-2.266l-1.584-3.238-3.888-1.727-3.744-2.806-.288-6.8-3.6-1.4-2.592-2.59v-3.022l2.88-.432-1.3-2.914-4.032-.863.72-2.7 4.176-1.187v-3.13l2.016-1.511h4.608l.432-3.669h6.048l2.448-1.835-1.44-3.669 2.16-3.022-2.88-3.453 5.328-1.727 2.448 1.835 2.88 3.13h4.032l4.752-1.4 1.44-2.266 4.9.755 5.76-.432 5.04-5.288 7.632.863 7.92-7.015 6.048.432.144 1.943 1.584 1.187-1.152 2.482 5.76 1.943.72 2.7 5.76-.863 1.872 3.238 4.032 1.187.144 2.482 3.024 2.266 3.456-.755h4.176l.72 2.158h2.74l2.016 1.727-1.44 3.885h2.16l1.584-1.943 1.584 1.187v2.482l5.472.324z" fill="#fff"/><g class="region"><path d="M577.445 484.914l-.864.971 1.584 1.4 1.872-1.4z" fill="#fff"/><path class="region" d="M780.478 487.18h-2.448l-2.592-2.914-1.582.647-4.464-3.238-3.6-2.806 1.3-2.914 3.6-.863 1.3-1.619-2.448-1.511.288-3.885-1.584-.324-1.584-2.914-3.168-.216-2.592-2.7.864-3.669 3.456-3.561 4.176.324 1.3 1.187 1.44.432.72-2.158 5.04-1.079 3.888-3.13-2.592-2.158 3.456-1.619 3.888 1.187 1.152-2.482v-2.374h4.9l2.448 1.727 2.448-1.835.576-1.727 5.472-.863-1.872-1.4-4.608-1.187v-1.295l5.472-1.187 5.616-1.079 2.88-2.158h3.6v-1.943l5.328-.108-2.896-2.155 4.608-.216 1.728 1.295-.288-3.238 2.16-1.619-2.3-2.158 1.44-1.727 2.592 1.943h3.312v-2.482l4.752 1.3 2.448-1.943 2.448-2.05h3.024l5.184-1.835 3.744.971h5.472l3.6-2.7 4.176.216 2.016 2.158h4.464l2.3 1.619 3.888-.863h5.472l3.6-2.59 4.176-1.727 5.616-1.619h5.328l3.024 3.561v3.885l-4.608 3.13-4.176 2.914-5.328.324-6.624 2.266-5.9-1.619-2.736 2.158-6.768-.216h-8.784l-3.168 2.7h-6.768l-5.04 2.05 1.584 2.59-3.6.971-4.032-.324h-3.744l-.432 1.835-3.888-.863v3.022l-4.032 2.05-3.168 1.835v-2.806l-2.592 1.835.576 3.238h-2.592l-1.872-1.4v3.993l-1.872-1.4-2.448 1.835-2.016 1.619h-2.88l-2.16 2.05-2.88 3.561h-4.608l-3.6 2.374v3.022l-3.744 1.187-1.3 3.238-3.024 2.266v4.1l-1.584 2.914 2.016 4.317-1.728 4.209 2.3 2.806 1.152 2.914-1.3.971-3.744 1.3v-2.05z" fill="#fff"/><path d="M919.146 326.706l-1.728.432 1.44 1.511v1.295h2.448v-2.591z" fill="#fff"/><path class="region" d="M918.714 338.145l-1.3 1.511-4.752.647-3.024 1.295 2.3.755-1.008 1.943 2.016.324h3.888l3.168-2.266 2.3-1.835-.72-2.59z" fill="#fff"/><path d="M903.738 335.77l-1.008.755 1.872 1.4 3.456-.971v-2.158h-2.016z" fill="#fff"/><path class="region" d="M901.147 339.979l-2.592-2.158-2.016 1.4-1.44 2.158v2.7l3.024.432.72 1.619 3.744-.647 2.448-1.835 1.872-1.3 1.008-2.266h-2.736z" fill="#fff"/><path d="M890.351 349.368l-1.152.863v1.727h2.448l.864-2.158z" fill="#fff"/><path class="region" d="M885.308 342.462l-1.152-.863h-4.032v1.943l-2.16 1.619 1.3.971 4.32-.648 1.584 1.187 3.744-.648 1.152-1.943 2.736.755-1.44-2.482-2.448-1.835zm20.015-22.448l-1.008 1.619 1.872 1.4 1.728-1.4zm-3.889 3.778h-2.88v2.374l3.024 2.266v1.943l2.736-.971-1.728-2.59zm-17.998 7.015h-2.592l-.576.324 2.16 1.619zm2.159 3.021l-1.728 1.295 1.728 1.4 1.872-.108zm1.584-5.936v1.835h2.448l-.432-2.05zm3.456 4.425v1.511h2.16l-1.728-1.187zm2.156 3.562l.864.647 1.584-1.187zm2.453-7.123v1.835l2.16.216v-2.05zm-3.169-3.777l1.148 1.726 1.152-.863-1.152-.863zm-23.327 11.331l-1.3.971 2.3 1.835h2.592v-3.238l-1.728-1.727zm6.046-2.158l.864 1.835h1.728v-1.619zm-10.079-10.792l-1.872 1.295v1.511l-2.016 1.619-3.744-2.05-3.024 1.3v1.619l-3.744-2.05-2.88.755.864 3.238 2.736-.648v2.158l2.88.54 2.592-1.943 3.6-1.187 3.168.755h4.464l3.168-2.482-3.024-2.266 2.016-1.511-3.456-1.619zm-10.366-3.345h-3.888l-2.3-1.835-1.728 2.482 2.16 1.511.72 1.835 4.752-1.187 1.584 1.187 3.024-.971 1.3.971v-2.05l-2.016-1.511h-1.872zm3.599 14.245h-1.584l.576 1.619 3.168.108zm.577 3.561l-1.584 1.187 1.3.971 3.024.54-2.016-1.511zm13.103-17.482v1.835h1.867l1.728-1.4zM650.449 505.742l-4.176 3.13-3.024 2.806v-3.993l3.312-2.482-4.032-4.748-2.736-2.05h-4.464l-6.48 1.511-5.76-2.266-6.912 1.943-7.488-.863-.288 6.259-4.032 2.482 1.728 3.13-2.016 1.511-6.912-1.511-2.592-4.209-4.176-3.13-1.44-5.288-1.44-8.094h-4.032l-4.032 3.238v3.022l-.576 3.993 3.168 2.374-1.152 4.425-6.048 3.238-5.328-3.885-4.9-3.777-1.3 1.187-1.728 2.05-2.592-1.187-1.008.755-1.872-1.727-1.44 1.187.288 2.806-1.44 2.482-3.024 1.187-1.152 2.05-.72 4.425 4.608 3.453-1.728 3.669-4.032.863.432 2.482-.72 2.914-4.744 3.452-1.728.324-1.872 1.619-3.6 5.4.432 1.727-1.872 1.4 1.3 4.964 2.736 1.3v2.266l3.744 1.4 1.008 1.835 1.584.755 2.16 1.619h2.448l2.016 1.511.864 2.05 4.9.216 3.6.648 1.584 1.187 3.024.648 1.152 2.266 2.88 2.05 1.872 1.079v1.835l2.016.54h4.032v-1.187l2.016.432h2.592v2.374l1.584 1.187h1.44v1.511l2.88 1.079 1.728 1.3 2.592-1.835.72-1.619 2.592.863 1.872 2.374-2.016 1.511 2.736 1.187v1.079h2.016l2.592.755-1.152.863 1.584 1.727 1.44 1.187 2.592-1.727 1.872.432 1.3 1.619.864.755 2.3 1.727-.864 1.943 2.16.863 3.024-.647-.144-1.3 2.016.432h3.744l.576 1.511 2.3.324 2.16-1.835 2.3-1.3 2.016-2.59-2.592-2.05 1.872-1.4 2.88-1.3.288-1.619 3.744-1.727 3.168-2.374 2.16-.755 2.88-2.158-2.016-1.619-.144-2.374-2.448.863-1.584-1.187h-2.16l-3.168.54-1.3 2.266-1.584-.432-2.16 2.374-2.016-1.619-2.3-.54-2.448-.863-.432-3.13 2.88-1.079-.432-1.943 1.152-.863.864-1.727 2.736-.54 3.456.54.576-1.619-.432-2.806-1.872-1.295 1.008-2.806 3.168-1.511v-2.59l1.008-2.482-2.592-1.943-2.448-2.7v-2.158l-.576-2.374h3.024l3.312 1.835 2.88.755 2.016 1.511 4.032.648 3.6 1.511 3.744 2.914.72 2.7 2.736-1.079 3.312-.863 2.448 1.187 3.168.54 3.024 1.835h2.16l1.44 1.079 2.16-1.619 2.16-2.7-1.872-1.4-.72-2.374 1.584-2.482-1.152-1.727-2.736-2.05-1.008-1.511 2.16-1.619 1.728-1.3v-1.187l1.584-1.3 1.44-2.7 2.592-1.943-2.016-1.511-4.608-1.619-.432 1.079-4.176 1.079-2.16-.648-2.88-2.482-2.16-1.619-1.008-3.022-3.744-2.806-2.16-2.05-1.3-3.777-1.872-3.022z" fill="#fff"/></g><g class="region"><path class="region" d="M1595.494 620.028l-1.728.324-1.3-2.7v-2.371l5.328 1.079 2.736.971 1.44 2.482 2.88 2.158 5.184.755 1.3 2.482 5.76 2.806h3.168l2.448 2.7 2.016 4.209 3.168 2.374 6.192 4.748 3.888.755 5.472 1.511 5.184 3.453 7.056 2.914 4.608 2.914 6.048 2.374 5.184 2.374 3.312 2.05 5.76 1.727-.864 2.05-2.018 1.514-3.888.971h-3.168l.864 3.238-.864 2.374v1.835l3.6 4.1 2.736 3.238.144 4.856 2.736 2.05 4.176 3.13 3.6 1.727h5.328l3.168 2.374h3.6l1.872 2.914 4.608.108 2.736-2.05 4.9 2.05 2.88 2.806v1.835l-6.624-2.05-2.448 1.835h-5.328l-1.728 3.237 1.008 3.13 3.312 2.482 2.448 4.1-3.312 2.05-2.736-2.482-3.6-2.7-6.192-4.317v-2.914l-4.176-3.13-3.888-2.914-2.736-2.7-3.312-4.856-4.182-2.913-4.32-1.835-4.176-.971-3.6-5.612-7.632-7.986-6.192-4.64-5.184-3.885-4.608-4.64-2.88-3.561-7.92-2.7-6.192-2.05-3.744-.324-5.04-5.18v-2.374l-5.328-4.1-2.88-3.993-5.76-1.4 1.44-3.13v-2.374l4.752 1.079.864-3.13-2.736-2.05v-1.187l-2.736-2.05-3.888-.971zm175.53 81.262l.72 3.238.432 3.13 1.728.432v-2.482l1.3-1.942v-2.806zm14.256 1.834v1.4l2.736 1.079v-2.266zm-8.496-12.518l2.448.755.864-2.482-1.3-4.964 2.3-1.727-.432-3.669-3.456-.755-1.008 4.1 1.3.971-1.152 3.022zm6.192-20.612l-1.008.755.864 2.7 1.584-1.835zm2.593-9.502l1.008-3.993-1.44-2.482.72-2.7 2.88-2.05.72 2.806-.576 3.022.72 3.346-1.44 2.59zm2.592-34.637v6.151h3.024l-.864-2.59v-3.777z" fill="#fff"/></g><g class="region"><path class="region" d="M1672.387 514.699l3.168 4.317 6.48 3.238 6.768 2.7 10.365 2.371 4.752.755 4.32 2.158 2.592 2.7 9.072 3.561 7.92 2.482 8.352 2.914 4.32 3.237h4.752l3.456 2.59 4.464 1.728h6.912l2.592 2.7v-3.561l-1.152-4.856-2.448-7.554-1.008-5.72-4.608-3.237-6.192-4.641-4.032-1.3-2.448-6.475 1.872-3.238v-3.238l5.328-.54v-2.158l-6.912-1.3-2.016-1.511-4.176-1.187-4.752-5.612-1.728-7.231 2.448-3.993 4.032-1.943 2.88-1.4-1.728-3.238-4.752-2.914-8.208.755-3.456-2.59-4.464-.863-5.04-6.259-1.44-4.317 4.752-1.079 1.872-3.453-4.752-3.561h-4.032l-2.448 1.835-6.192-1.079-6.192-3.238-.864-3.993-6.192-4.64-1.728 2.7-2.3 1.727v1.511l1.872 3.022h-6.768l-4.032-3.022-6.624-2.59-.72-3.993-1.008-5.072-4.608-3.453-3.312-2.482-2.88-2.158-3.6-4.533 2.592-1.943v-4.64h2.88l4.464-3.345-4.464-1.511v-3.345l-2.592-5.18 2.88-.216 3.312 2.482 4.608 1.619v-2.914l-4.028-4.635v-2.7l1.872-5.072-2.592-1.943 5.04-5.4 3.168-5.4 6.048-1.4 4.32 1.619 4.032-2.7-2.592-1.943-4.032-3.453-2.448-7.23v-5.178l-4.608-3.022-2.448-5.612-1.152-5.72-2.448-4.317-1.44-5.072-2.592 2.806-4.176.216-3.024-2.266-3.6.863-1.008 4.64-1.728 4.64-3.6 4.209 2.16 2.374-2.448 5.5-2.448 3.993-4.032 1.835-2.736-2.05-3.6.863-3.312 2.482-4.176.54-3.744 3.669-2.88-2.158-1.44-3.022-2.016-2.806-1.3-3.669-3.024-.648-4.176 2.158-2.448 1.835-3.456-1.079-5.76.648 1.152 2.7-2.016 2.158-2.592-.54-5.76 1.3v3.13l-2.592 1.4-1.584 3.777-4.032-.216-4.752 2.7 1.728 1.295-2.448 1.835-3.888 1.619-2.16 3.238v3.13l1.728 1.511 6.048.432.144 1.943 1.584 1.187-1.152 2.482 5.76 1.943.72 2.7 5.76-.863 1.872 3.238 4.032 1.187.144 2.482 3.024 2.266 3.456-.755h4.176l.72 2.158h2.736l2.016 1.727-1.44 3.885h2.16l1.584-1.943 1.584 1.187v2.477l5.04.432 2.3-2.482 2.16.216.432-2.374h-4.752l-4.032-3.022-4.176-3.13-2.88-1.943 1.44-2.914v-3.777l5.328-2.158 3.744-2.806 1.584 1.187-4.608 3.238v4.1l5.04 2.374 3.312 3.238 2.736 2.05 3.024.863h3.168l3.168 4.533 2.88 2.158v5.5l-1.728 4.317.288 3.561 2.88 1.835 2.88 6.691 2.448 4.533 2.16 5.612 1.872 5.936 4.608 4.533 2.88 6.691 1.152 5.72 2.448 5.4-1.872 1.4-2.16 1.619 2.3 3.022-1.728 2.7-2.016 1.511v1.511l4.464.755 4.032 4.317.72 4.1 3.312 2.482v3.777l4.752 3.777 7.344 4.964z" fill="#fff"/><path class="region" d="M1667.348 424.911v3.453l-.432 3.13 2.592 1.187 1.584 1.619.144 2.7 3.456.971-.864-2.806-1.44-2.158 1.44-3.561v-4.425l-4.032-1.187zm80.782 16.296l-2.88.863 1.44 2.266h9.936l3.168-2.266-4.032-.971-3.888 1.187zm14.399 114.717l-1.3 2.806-2.016 1.511 2.3 1.727 1.3 2.05-.288 2.806-.288 3.561 2.16 1.619 2.448-.971v-3.776l2.16-1.619-1.728-3.13-2.88-2.158.144-2.806zm8.928 24.281v2.374l2.016.755 1.44-1.4zm-5.616-147.092l-2.736 1.4 1.44 1.079 2.016-1.4 1.872-1.511z" fill="#fff"/></g><g class="region"><path class="region" d="M1659.428 336.311v-6.472l-1.728-5.72-4.032-4.64 1.872-1.4-5.616-2.806 1.44-1.619h5.04l3.168-5.072 4.752-1.4v-3.777l-3.456-2.59-1.872-3.13-3.888 2.158-2.592-1.619-3.168.324-2.592 1.943h-4.176l-1.152 1.727h-4.32v-2.59l-5.328.216-2.88.324-3.6-.216-1.44 1.835-3.024 2.266-5.184.108-2.88 1.619v3.453l-3.168.863-2.3-1.835 3.888-3.453h-2.592l-4.176 1.3 1.728-2.914 5.04-1.619h3.6l3.888-4.64-1.008-4.1-1.872-5.18-4.032-3.022-3.744-2.806-2.16 1.619-.288-3.453h-3.6l-5.328 1.079-3.312-2.482v-2.498l-4.176-.54 1.44-1.079 2.16-.755-1.872-1.4.432-1.727 2.448 1.079 2.592 1.619h4.608l3.168-1.835 3.168 1.835 4.032-3.022v-4.64l-1.872-2.7 4.032-4.533h4.608l3.6 1.079 5.04-1.3 2.592-4.317 5.04-4.1 5.472-.324 2.16-4.64-4.032-.863v-1.4h5.04l-1.728-2.914v-2.376l-2.592 2.482-2.592.54-3.168-3.561-4.464-3.345v1.944l-5.616-1.619-2.592 2.266-4.32-.54 5.472-2.7v-5.932l-5.04 1.079 2.592-4.1-2.3-1.835-3.168-1.943v-3.022l-5.472 1.943-4.32 4.533h-1.728l-5.76 1.619-3.312 2.482-2.448 2.482-.432 3.238-2.592-.216v1.619l3.888.755-4.608 2.374-1.44 3.238 4.32.863 6.768.324 5.76-.863v2.158l-5.76 2.374-3.312 2.482-4.9-2.806-5.472 1.3-3.888-2.914-3.312 1.4-5.328 1.835-4.32 3.453-8.208 1.835-4.32 4.64-6.048 1.835-4.9 3.669-4.752 3.561-5.184 2.158-7.2 2.374-3.744 2.806-8.208 6.151-7.344 5.288-1.872 5.18-4.032 4.533-1.44 3.238 1.44 3.022h-3.304l-3.888 1.619-.432 3.777-4.32 1.619-1.152 3.453v1.943h4.752l1.44 2.482 6.048-.755 8.208 2.7 2.592.324 1.44 2.914-1.152 2.914-4.752.863-5.328 1.835-3.888 1.079h-5.616l-3.6-2.7 3.456-2.59-4.608-3.454-2.592 1.943-2.592 3.561 3.312 3.561-1.008 2.158 2.448 1.835-1.44 4.317-6.048 3.238v3.561l-3.168 2.374h-3.6l-2.16 3.022v5.93l1.872 2.05 5.76 1.511 4.752.432 1.152 2.266 4.32 1.187 3.744 4.748-4.9 2.806-2.3 4.317v3.561l-3.312 1.727v3.669l-2.88 3.345 2.016 3.561 3.744 1.619v4.209l4.752.54 4.464 1.511 4.9-1.187h3.888l2.88 2.158 2.592 3.777h2.736l5.328-1.727 2.448 1.835 2.88 3.13h4.032l4.752-1.4 1.44-2.266 4.9.755 5.76-.432 5.04-5.288 7.632.863 3.312-2.482 4.608-4.425-1.728-1.511v-3.13l2.16-3.238 3.888-1.619 2.448-1.835-1.728-1.3 1.152-.863 3.6-1.835 4.032.216 1.008-3.345 3.168-1.835v-3.13l5.76-1.3 2.592.54 2.016-2.158-1.152-2.7 5.76-.648 3.456 1.079 2.448-1.835 4.176-2.158 3.024.648 1.3 3.669 2.016 2.806 1.44 3.022 2.88 2.158 3.744-3.669 4.176-.54 3.312-2.482 3.6-.863 2.736 2.05 4.032-1.835 2.448-3.993 2.448-5.5-2.16-2.374 3.6-4.209 1.728-4.641 1.008-4.64 3.6-.863 3.024 2.266 4.176-.216 2.88-2.7z" fill="#fff"/><path d="M1490.953 245.983l-1.872-.54-1.728 1.3-3.6 1.4-3.024 2.266.288 3.777-1.3.971.72 3.13 2.3 2.59 2.592 4.317 3.744.54 2.592-1.835 1.872-2.7-2.016-1.727 3.168-3.453-.576-3.777v-4.424z" fill="#fff"/></g><path class="region" d="M300.541 492.899l3.744.648 3.312-.648 1.152-1.835 2.88.432 2.736 1.943.144 2.806 2.16.54.432 2.158 3.456.432.72-2.05-1.872-1.4 1.728-1.187 1.008.755 3.168 2.05v3.13l-.432 2.7 2.016 2.266 1.872.971.576 3.561-1.584 2.59-8.065 3.02-12.1-10.792zm160.123 23.099l-2.16-1.187-1.728.216.576-1.727.576-1.511v-.971l.72-.648 2.016 3.669 2.88-2.158 1.584-1.4.72.647v1.3l-1.152 1.079v1.4l-2.16.755h-1.008zm-62.638 80.935l-2.3-2.7 3.168-.54 3.6-2.59h3.168l2.448 1.835.72 2.158 3.456.216 1.145-.861 2.016.432 3.17 1.838 2.88-1.4h3.312l4.464-.648 3.456.648 1.728 2.7 2.16 1.619h4.032l1.44 2.158 1.44 1.943-1.584 1.835-1.3 1.943v2.7l-3.6 1.835-3.6-1.727-1.152.863v2.05l-3.168.432-2.88-2.05-2.3-.971-4.176.863-2.016 1.511-2.16-.647-3.312 3.443-5.328-1.619h-3.744l-3.6-.863-.432-2.59-2.3-1.727v-2.161l1.728-1.4v-2.59l1.008-2.7-1.872-1.4zm85.965-35.073l1.728-1.3.72-2.59-3.168-3.777-3.456-.863 1.008-1.727 1.584-2.158-1.3-2.7-.576-2.7-1.872-1.4-2.736-.755 1.44-2.158v-2.154l-3.024-1.079-.432-2.158-3.456-.108-2.016 1.511-2.592-2.482.72-4.64-2.16-.324-2.448-1.835-2.3 1.4-2.448.54-3.6-1.187-3.888-.324h-5.472l-1.728-2.482-2.016.755-1.728 1.295-3.168-.216-4.032.216-1.728 1.4v2.268l-1.871 1.3.864 1.511 2.448 1.4-1.008 2.59-3.312 1.079-2.3 1.727-2.016.863v2.482l-2.16.863-2.016 1.4 2.016 1.511 1.44 2.374 2.16 1.619h4.32l2.016 1.619 3.6-.216 2.88 1.3h5.04l2.736 2.05 3.312.216 2.016-1.511h4.032l2.592-1.835h3.168l2.736.971 1.872 1.4.864 2.59h3.456l2.3 2.158h3.168l.576-1.511 2.016 1.511 3.168 1.187z" fill="#fff"/><path class="region" d="M449.721 581.284v2.374l1.3.108.432 1.943h3.6l2.016 1.079 3.168 1.3h3.744l2.448 1.835h4.032l3.312 1.4 3.168.647 2.736-1.943 4.608-2.158-1.728-2.914v-1.728l2.592-1.943-1.013-3.237 1.44-2.374h3.46l1.584-3.669 4.608-1.511v-3.561l1.3-3.022-3.456-.863-3.888.54-2.748-.864-2.3-.863-3.456-1.187-3.888-1.187-2.016-1.511-.576 1.511h-3.164l-2.3-2.05h-3.456l-.864-2.59-1.872-1.4-2.592-.971h-3.168l-2.592 1.943h-4.032l-2.016 1.511-3.312-.324-2.736-2.05h-5.184l-2.736-1.3-3.6.216-2.16-1.619h-4.18l-2.16-1.619-1.44-2.374-3.744 2.374-.432 2.266-2.16 1.619-.432 3.777-1.3 2.158-1.44 1.943h-3.312l-1.44 3.022.432 1.079 3.312 1.4.864 3.669 3.024 2.266 3.312 1.4 2.3 1.727 4.752.863 3.744-.863 4.032.863v1.943l1.872 1.4 1.872 2.7 2.592 1.511 1.44 2.05 1.584-1.511h2.736l1.872-2.05 3.6-1.187z" fill="#fff"/><path class="region" d="M472.18 611.502l-1.152-1.727v-2.374l-2.3-.755-1.148-2.377 2.736-1.511-.144-2.374 2.016-1.511.864-2.266 2.736-.971-.72-2.158 1.728-1.511-3.168-.647-3.312-1.4h-4.036l-2.448-1.835h-3.744l-3.168-1.295-2.016-1.079h-3.6l-.432-1.942-1.3-.108v-2.374l-3.744 1.079-1.872 2.05h-2.736l-1.584 1.511-1.152 3.022-4.32 1.4-3.312 2.482-1.728 1.943 3.312.755 1.584 2.266 2.448 1.943h3.888l1.44 2.158 1.584 1.943-3.024 3.777v2.7l2.16 2.59 3.024.432v1.943l-1.008 2.158.864 2.158-1.152 3.022.432 2.482 3.6-.432.576-1.943 2.88-.432 1.008.755 4.32-.108 1.3-.971 3.744.54 2.3.648 2.448-.432 1.008-.755 2.736.216h2.88l-.144-2.59 1.584-.54.864-1.835.288-3.453-1.872-1.4-2.016-.863zm-11.8-9.065l-1.584 1.511.576 1.943h-3.312l-.864-.648-1.008-.755-1.728 1.3-2.448.108 1.008-1.943V600.5l1.728.216 1.584-1.619-.576-.971 1.584-.971 2.16-.432-.144 1.187.864 1.187.144.216 2.3.755 1.584 1.187-1.872 1.187z" fill="#fff"/><path class="region" d="M458.216 599.199l-.144-.324-.72-1.079v-1.187l-2.16.432-1.44.971.432.971-1.44 1.619-1.728-.108v3.345l-1.008 2.05 2.448-.108 1.728-1.4 1.008.755.864.755h3.312l-.576-1.943 1.584-1.511 1.728-1.295-1.584-1.187z" fill="#fff"/><g class="region"><path class="region" d="M795.741 496.789l-3.6 1.3-2.592.648.72 4.317.432 2.266 2.3.432 1.008 3.453 4.464.324 1.584-2.806-2.16-2.7.144-3.13zm-77.181-14.142l-4.752.971-2.88 2.7-2.16 2.158 1.584 3.13 3.456.971 3.312.971 3.024-1.619 3.744.432 1.872-3.345-3.024-3.022-.288-2.374z" fill="#fff"/><path class="region" d="M826.7 526.246l-2.016 2.158-2.3 1.727-1.44 1.079 2.3 1.619.432 1.4 1.872.432v6.151h-2.3l-2.736-1.187h-2.736l-4.752 3.022-4.176.216-1.872 3.453-6.336-.863-1.728 2.05-2.736 2.05-2.736 1.187-5.328 1.4-4.608.863-5.472-2.05-2.88.432-3.312-2.05-6.336-1.942-6.48-3.13-4.752-1.4-7.776-2.266-3.888-2.914-4.752-.324-7.488-3.561-3.744-2.806-5.76-1.943-5.76-3.669-5.328.432-4.032 1.943-24.911.108-2.016-1.511-4.608-1.619-.432 1.079-4.033 1.077-2.3-.648-2.88-2.482-2.16-1.619-1.008-3.022-3.744-2.806-2.16-2.05-1.3-3.777-1.872-3.022-1.872-1.835 5.76-.863 4.752-5.18v-4.533l1.872-3.022 6.192-2.374v-2.914l6.048-2.7v-4.533l-1.008-4.317h4.032l1.3 2.266 5.472 4.1 4.032 4.64v6.259l-1.44 3.238-2.16 1.619-3.6-2.7-5.04-.863-7.632 1.943v4.64l1.872 4.317v3.561l5.472 1.079 5.328 1.835 6.048-2.158v-3.238l6.192-1.079 6.048 2.158-1.008-2.914 9.36 1.3 5.04-.755 9.072.863h5.328l2.592 3.561h2.448v-3.238l7.624-1.827h4.032l1.728 4.64h-4.32l-1.44 3.238-3.6.863 5.472 3.777h3.888l7.2-2.374 6.912.971 7.488 5.612 2.592-1.943h5.04l6.336-1.511 2.592 1.943-.72 2.482-3.888 1.943v3.022l4.608 2.914.432-3.345 2.016-1.511 4.752.863v-2.374l4.608-.54 1.008-4.317-.72-5.18 4.32-1.619 3.744-.863 4.464 3.345 1.872-1.4 4.9 4.64 5.616 4.209 4.608 3.453.72 1.511z" fill="#fff"/></g><g class="region"><path d="M931.386 493.224l-2.448 1.835-2.592 1.619 2.448 1.295 1.872-1.295h3.168l2.736-1.943-2.592-2.05z" fill="#fff"/><path class="region" d="M923.467 475.094l-1.872 1.3 1.3 1.511 2.592-1.3 3.312.647-.864-1.511zm-9.936 6.582l-1.152 2.05 1.728 1.187 2.016-1.835zm-23.328-10.684l-2.448 1.3 1.008 1.511-1.872 1.835.432 1.079 4.032.863 3.6-1.295 2.16.108v-1.619l-3.456-.647 1.728-1.511-1.872-2.05-2.448.648zm-70.126 74.573l.432-1.943 1.872-.755 1.152-1.943h2.3v-6.151l-1.872-.432-.432-1.4-2.3-1.619 3.744-2.806 2.016-2.158 1.872 2.914 5.616 4.209 3.888 4.533 4.032 4.1v3.561l3.312 3.993 4.752-2.158v-3.78l5.472-3.777-3.888-.863-2.592-4.64 1.008-5.072-4.608-2.374-2.592-3.885 2.3-1.727 4.752-1.835v-2.917l1.152-4.317 2.16-2.158v-2.7l-3.168-.755 1.728-3.561 2.592-2.482 4.752-1.3 5.184-1.943 1.872-1.4 4.032-3.022 3.168-5.18 2.448-4.317 2.592-4.317 4.608-1.835 2.88 3.022h5.76l2.88 2.158h5.04l2.16 6.151-2.448 1.835-.864 6.583-6.912 5.18-1.872 4.641 4.032 2.7-1.44 6.151-1.152 4.856-4.752 5.4-1.728 7.77-2.592 6.8-1.872 3.453 1.872 4.748 4.176 3.13-.72 2.914-5.328 3.022-1.008 6.691-5.328 1.079-6.192 4.64-3.6 3.993-3.312 1.4-6.048-.863-3.6 1.835-4.032-1.943-2.592-1.943-3.6-.863v3.453l3.6 4.1 3.6 1.3 4.752 2.482 4.032-.216 2.88 3.022h4.32l.864-3.13 2.599-1.942h3.168l1.44-1.079 6.048-1.3 4.752-1.943v-3.777l2.16-1.619 3.739-2.804 3.024-2.266 1.44-4.317-1.152-3.777-.432-3.453 3.312-2.482 3.312-2.482h5.04l5.472-.54 1.584 3.453 2.3 1.727 2.88 5.612-3.888 2.914.288 4.317v2.7l4.752 3.561 5.472.863v-2.482l-5.472-1.187-2.016-1.511v-2.158l-.432-3.238 3.888-.863 1.44-2.374-1.44-3.453 1.728-2.914-2.448-3.561-3.168-2.158-1.872-1.4-5.9-1.511-3.312-2.482-2.736 2.05-3.6 1.3-1.872-1.943h-4.32l-.72-3.453 2.88-2.158-.72-5.72 3.312-3.993 2.16-4.641 4.752-3.561-1.728-3.993-1.44-3.453.576-3.669-3.456-2.59 3.888-2.914 6.048-4.533h5.04l2.88-3.453 1.872-3.777-1.728-3.022 1.728-2.7h3.888l-1.152 3.777v5.18l-1.008 4.64-4.32 3.238v7.77l5.04 2.914 2.88 1.835 3.744-1.727 3.744 2.806 4.032 2.914v-2.162l-1.584-2.806-2.736-2.05-4.32-1.619v-1.4l-3.6-2.7-1.728-3.993 5.04-2.482 2.448 1.835 3.888 2.914 2.88-1.943-1.008-2.374-.576-2.051 2.736-2.05.288 2.158h2.3l1.008 1.943 1.872 1.4 3.312.648 3.312 1.4.864 2.374-2.3 1.727.432 1.943-4.608.54-2.016 1.511-1.3.971 1.44 2.374 1.152-.863 1.44 2.158 5.184 2.158-.432 4.317v6.26h-4.749l-1.872 2.158-3.6 2.7-4.32 2.482.288 3.345 2.16 1.619.72 1.943 3.024 2.266 4.608.54.576 2.374 1.584 1.187 2.88-1.943 1.44 1.079 2.88-2.05-.144 3.561 3.744.54v2.806l2.3 4.1-1.3 2.59h-1.872l1.872 2.7-1.872 3.022-2.592 1.943-.864 2.158-3.312-.54-.144 2.914 2.3 1.727.72 3.238-2.016 2.7 2.16 1.619v2.482l5.328 2.374 2.016 3.13-3.312 2.266v1.835l1.728 2.158v3.238l-2.16 1.3 2.592 3.561h2.88l2.88 2.158 2.16 3.237.432 4.1-2.448 1.835 1.152 3.777 5.472.863 2.736 2.05 2.736-2.05 1.008 4.317-1.008 3.777 1.728 2.914-3.312 2.482-3.456 3.345-2.448 3.453 3.6 3.777v4.533l-3.456 2.59-.432 4.1-2.016 1.511-5.616 4.209-5.04-4.64h-3.302l-3.6.863-3.6-4.532-6.912-1.619-2.3 1.727-4.9-4.748-1.872-3.777-5.04 2.482-4.32 1.835-1.872 2.482h-17.28l-3.888-2.914-5.04-1.943 1.728-3.453-6.48-1.943-2.3 1.727-3.888-2.914-5.9-1.187-4.032.755-4.752-3.777h-4.032l-3.6-4.317h-4.032l-8.352.755-1.728-3.561 1.152-3.561-5.472-4.1v-3.14l-1.3-4.856-5.76-4.317h-6.48l-2.592 1.943-3.6-2.7-3.312 2.482-6.48-.863-3.6-3.022 4.176-3.13-5.472-3.561-5.468-2.156-5.04 1.619-5.04-1.619-6.48 1.079-4.752-3.561-4.032-3.022-2.3-1.727 4.464-3.346 1.872-4.425-1.008-4.856.432-5.935 6.192.216v-3.993l7.632-3.238 7.632-1.295h8.208l1.728-3.993h4.608l4.32-3.238 5.76-2.158-3.744-2.806 4.464-1.4v-2.374l-4.752-1.835.432-1.187z" fill="#fff"/></g><g class="region"><path class="region" d="M1537.751 636.107l-2.016 1.727v4.533l3.456-1.187 1.872 1.4 2.16-1.511.864-3.13-2.3-2.482z" fill="#fff"/><path class="region" d="M1465.177 664.165l-2.736-4.748v-3.561l-3.168-2.374 2.736-2.05.864-4.64-6.624-2.158h-5.328l-.576-2.374 3.744-.54-2.016-2.914 1.008-5.5-4.464-.54-4.464-3.453 3.888-.647.432-4.317-1.728-1.295-1.008-2.266 1.44-2.806-3.024-2.266 2.592-2.59-2.16-1.619v-3.885l4.9-1.943 3.312-1.4 3.888.324 3.168-2.374 4.32-1.295.576-3.13-2.736-2.05 1.584-3.022 5.616-.755 7.344-5.5-.288-6.151 5.184-1.3v-2.05l-5.186-3.893-1.152-2.7-5.76-4.317-3.744-.647-.72-3.453.864-4.209-2.88-2.158 4.464-4.317v-3.777l.288-4.748-2.3-1.727-1.152-3.345-2.16-1.619-.144-4.209 4.176-.647 3.6.647 4.608 1.943 4.608-1.835 3.744-.863 3.744-2.806 2.736-3.561 3.6.108 2.16-.971 1.584 1.187 2.016-.54v-3.021l-.288-4.964 3.888.108 4.9-4.317 9.216.432 8.64 3.777 3.312.863v2.7l3.6 3.669-4.464 1.943v4.1l2.736 3.022 3.312-.108 3.6-3.238 4.176.108 2.88 1.079 2.16-1.511h2.88l5.184 3.885 1.152 2.806h-2.88l-2.88 1.943 1.872 2.374 1.44 1.079-4.032 1.943h-5.484l-5.472 3.993-3.456 2.59-3.888 4.856-4.032 3.022-4.032 6.151-.72 5.935 3.888 5.72-3.6 2.7-1.152 5.72 2.16 4.1 3.312 2.482-2.88 3.561v11.327l-1.44 4.533v6.151l2.448 1.943v9.173l-2.16 6.151v5.072l-3.6 4.533v4.532l-1.872 3.993 2.16 3.669h3.6l2.88-2.158h3.888l3.168-2.374 3.456-2.59 2.448 1.835 2.88 1.079v2.374l2.3 3.13 2.88 2.158 2.592-1.942v-3.022l-3.312-1.079v-2.7l2.592-2.158v1.835l2.88 1.619 1.44-.324 1.44 1.079v5.612l4.752-1.4v-1.835l2.592-2.7 1.728-1.079 2.592 1.4.576-3.022-2.3-1.727-2.16-3.022-2.592-3.561 4.32-1.835 2.592-1.943 5.328-.863h6.192l5.184.432 2.3 1.727 6.768-.755 4.608-1.079 3.024 2.266-2.3 1.727-1.728 1.3-1.44 1.943h8.352l1.008 2.374 3.6 2.7 4.464-.432 2.3 1.727 2.448 3.453.72 6.8 3.168 7.231 4.9 5.288 6.192 4.64 2.448 1.835 1.152 3.022 4.752 3.561 3.312 4.317 1.152 2.482 4.464 5.18 3.744 2.806v7.554l-1.44 6.475 2.592 6.475-3.888 2.482-4.036-2.268 1.152-1.835-1.44-2.266-3.456.108-2.592-1.944-3.312-1.943-2.88.324-1.728 4.964-4.752 3.022.864 2.482 4.464.432 1.152 2.59 4.032-.324 1.584-2.266 1.872.432 1.872 3.453-.576 3.561-1.44 2.59-5.76 1.511-.864 3.022 2.88.648v5.072l-3.744 3.561-4.9.54-.432 1.187-4.9-.54-1.152 1.187-3.312.108-1.008-.755-3.312-.755-4.176 4.317-.576 3.453 2.592 1.943v1.511l-4.752.432-1.152-3.993-5.76-4.1 3.6-2.7v-3.993l-3.024-2.266-3.456-2.59-1.008-2.374.576-2.05-1.584-1.187.432-2.914-4.176 1.187-4.9.432-2.448 3.346-6.624 1.079-3.024 3.13-4.752-4.209-3.888-1.4-3.6 1.187-1.872.755-4.032-.54-3.888.432.432 3.777-2.16 1.619-2.3 3.13-2.736-.54-.144-4.317-2.736-1.511-2.016-.432-.432-2.59-4.464-2.482-.864-2.806-5.184-.432-2.016 1.511-2.736-3.13h-2.735l-2.592-1.943-1.008-7.231 2.3-3.13-2.88-3.238 3.312-2.914.144-2.482 4.032-2.806.576-5.18 4.32-3.669-.144-2.374-4.9-3.669 1.872-1.943 4.176.108 7.776-2.158 1.728-4.425-4.464-2.266-1.3-5.5-4.176-3.13-4.464.324-2.592 3.346-2.448 1.835-4.608.648-1.3 2.806 1.008 3.345-1.584 1.187-4.608 1.3-2.3 2.374-2.16 2.482-3.024-.108-2.88 1.943-6.624-6.8-3.744.971-2.016 1.4-5.9-.647-3.024-2.806 1.728-3.022 2.88-1.187v-2.492l-2.592-3.237 1.3-2.482 1.584.108v-5.5l3.024-3.13-.144-2.482 1.584-3.13-4.32-1.835-4.32.648-3.293 2.48-3.888.432-2.736 2.59-3.024 1.187-1.44-.432z" fill="#fff"/></g><path class="region" d="M359.723 734.96l-1.872-1.835-2.592-.863-2.592-3.022-2.016-1.511 3.312-1.943-.72-2.806 2.592-.647-1.872-1.4-6.48-5.18-2.736 1.187-2.592-1.943.288-1.835.864-2.374-3.312-1.079-2.16 1.619-2.88-1.943-2.592-1.4-2.88-.324-1.008 2.374 1.872 2.7-.72 4.533-3.6-.863h-2.88l-5.472.216-4.032 1.3-1.728 2.7-3.6-.863-3.888-3.561-2.88.324-2.592 1.942 1.152 3.561-1.44 3.237 1.872 2.914 2.88 1.942-.432 5.4 2.448 2.7 1.872 3.022 1.008 6.151-.72 8.31 1.872 4.317 3.168-.324 2.448 2.482 1.872 1.835 2.592.324 2.88-2.158 3.456-.432 2.448-1.835h2.451l1.3 2.158 2.01 2.251h4.608l3.6-3.345 1.3-1.943-.864-2.59 2.592-.54 4.032-2.266-2.3-1.727 2.016-2.374-1.44-2.158-1.872-1.187 2.016-2.158v-2.158l1.872-1.511 1.872.432 1.3 1.511 3.312-.324 2.146-1.624-.432-3.669 1.872-1.727zm-24.911 9.929v3.993l-1.3 1.943-1.008-2.374-2.3.755-2.16 1.619-2.592 2.7-2.592 1.943-1.728 1.079v1.4l-2.592.324-1.152.863-1.3-1.943-3.744-3.345 2.16-1.619 1.872.647h5.184l.576-1.4-.864-1.727v-3.022h2.3l1.44-2.05 2.592.108 1.584-1.187-1.44-2.482-2.592-1.187-.72.648h-2.44l-1.728-1.4-2.016-1.511-1.3-.971-1.152-1.619v-1.727l1.44-.432 1.728 1.3 1.152.863 1.44 1.727 3.024.648 1.3-.432 3.024.755.72 1.943 2.16.863 1.44 1.079 1.584.863v2.374z" fill="#fff"/><path class="region" d="M365.771 786.869l1.008-1.4-2.736-1.4-1.728-1.4-3.312.54-4.464-3.238-.864-2.158-3.744-.54-3.744-.971 1.152-1.943-1.008-1.835-2.016-1.4 1.3-1.619h4.176l-1.3-1.511-.72-2.266-2.592-1.3v-2.806l-2.88-.755 1.3-1.943-.864-2.59 2.448-.54 4.032-2.266-2.448-1.727 2.016-2.374-1.44-2.158-1.728-1.187 1.872-2.158v-2.158l1.872-1.511 1.872.432 1.3 1.511 3.312-.324 2.016-1.619h2.736l1.728 1.4 2.736 1.079 1.008 2.266h2.448l2.016-.54 1.008 2.374 2.016 1.511 4.176-.648 2.736.863.432 2.7 2.3 1.943.72 2.266 2.3 1.727 1.584 3.238-1.728 2.374 1.872 2.482 2.448 1.832 1.872 1.943v2.157l2.592 1.835.576 2.806 2.016 2.266v4.1l-3.744 1.835-3.6.863-3.168-.755-1.872 1.295 1.152 1.511-1.728 1.187h-2.88v1.511l2.448.971-1.44 2.806h-3.888l-1.872-1.295v-1.3l-1.728.108-1.728 1.835-2.016.216-1.008-3.022z" fill="#fff"/><path class="region" d="M386.362 796.473l2.448 2.482 4.9.324.432 4.1-2.448.648-4.464 1.835-4.176 3.777-1.44 4.209-4.032-1.727-2.448 1.4-4.032-.216-2.592 1.511-4.176.432 1.44-3.022-3.6-2.914 3.744-1.943 2.736-3.453 2.3-3.669 1.008-2.806-3.888-2.158-1.584-2.374 4.9.108 2.3-.648 1.44-1.4 1.728-.108v1.3l1.872 1.295h3.888zm-51.55-16.295l2.88-.863 2.88-2.158 2.3.216 3.312-1.079 3.744.971 3.744.54.864 2.158 4.464 3.238 3.312-.54 1.728 1.4 2.736 1.4-1.008 1.4-1.872 1.187v2.158l-1.725 1.3-4.32.216-1.44 1.079-2.16-1.511h-3.312l-2.16.971-2.016-.324-3.312.863-3.312-2.374 1.008-3.561-4.176-2.59zm110.3-95.832l-.288 3.13 1.44 4.317 5.472.432 3.168 1.295v2.158l4.752-.108 5.76 4.1.72 4.964-4.464 3.13 3.168 2.266 1.872-1.295 3.312.971 1.008 3.561 2.3 1.727h3.463l.576 2.7 3.024 2.158.144 3.669-1.728 2.914-3.024 1.619h-4.752l-3.744 2.806-3.024 2.374v3.238l-4.176 1.295-4.32-.216-3.024 2.374-1.728-3.777-2.736-2.05-3.456 1.619-4.9-.108-2.448-1.835-5.76 1.079-1.584 3.238-4.32-.755-2.592-1.835v-2.266l-2.3-.648-1.728 3.561-2.448.755-2.452-1.835-2.88.863-2.592-1.943-4.32 2.914-5.184-3.669-1.152-3.238 1.44-3.022v-3.238l-5.328-2.914 3.024-2.266v-2.266l4.032-1.187 3.168 2.374 5.04-.647 3.312-4.856-2.16-6.475 5.76-4.209 1.872-3.885-3.312-3.885-.288-2.374 5.616-4.209 1.728-4.317h6.912l3.312-2.266 3.456.54.864 1.943 3.744 1.511z" fill="#fff"/><path class="region" d="M404.506 740.787v-3.885l-5.184-3.669-1.152-3.238 1.44-3.022v-3.238l-5.328-2.914 3.024-2.266v-2.266l4.032-1.187 3.168 2.374 5.04-.647 3.312-4.856-2.16-6.475 5.76-4.209 1.872-3.885-3.312-3.885-.288-2.374h-6.192l-2.16 1.619h-3.312l-1.728-1.727h-4.176v-2.266l-1.872-1.4-1.872 1.835-1.728 3.022-8.784.863.144 2.914-3.312-.324-3.312 2.482.864 3.993-3.6 1.619-5.184 3.885-5.76-4.641-3.888-3.022-4.032 1.187-4.608-1.4-5.328 1.835-3.6 2.806 2.88.755 2.736 1.943 4.032.755 2.88 1.619-1.008 3.238-4.032-1.295-5.472-.54-.864 2.374-.288 1.835 2.592 1.942 2.736-1.295 8.352 6.583-2.592.648.72 2.806-3.312 1.943 2.016 1.4 2.592 3.13 2.592.863 1.872 1.835-2.16 1.727.288 3.561h2.736l1.728 1.4 3.024-1.835 2.3 1.3h4.464l1.728-1.3v-1.834h2.736l1.3 2.59v2.375l2.3 1.727 2.88.54.864 3.13.864 2.266 1.872 1.4 2.592.755 1.152-.863 2.88.54 5.04-3.993h5.472l4.9-2.7 2.448-3.561v-2.7l-3.6 1.4zm48.238-.862l-1.728-3.777-2.736-2.05-3.456 1.727-4.9-.108-2.448-1.835-5.616 1.079-1.728 3.238 1.44 3.561 2.736 1.4-1.44 5.72.432 3.453 2.3 2.266 5.328.108-1.3 4.425-2.736 1.187-1.715 4.431 2.448 1.835-1.584 2.914-5.04-.324-.432 2.266h-1.728l-.432-1.4-2.736-.863-1.872 1.4 1.728 1.727v2.158l1.584 1.187v1.727l-7.776 4.1.72 1.4 3.312.108 2.592 1.4 4.32.539 1.728 1.3 3.6.755 1.872 1.4 5.184-.324h8.064l4.032-.324 2.448-1.835-3.024-2.266-2.016-3.13-.432-3.237 3.6.324 2.448 1.943 2.592-1.943v-4.964l-1.3-6.151 1.152-4.64-2.88-2.158-4.608-3.238-3.168-1.4 3.168-2.374 1.44-4.64-3.456-2.59-1.584-3.561 3.6-1.943zm-63.358-119.79h-2.592l-2.592 1.943 1.3 1.511 2.592.755 1.728 1.079v2.914l2.736.54.72 1.727 2.592.863.72 3.993 2.592 3.345.864 4.1 2.592.432 2.016 1.4 2.88-1.727h3.024l2.16-1.619-1.3-1.835 4.752-2.158 1.44-2.482 3.744-.971-1.584-3.993 1.584-1.187-4.32-2.158-3.024-4.641-1.728-6.151-5.328-1.619h-3.744l-3.6-.863-1.44 1.079-.72 2.266-1.3.971-2.016-1.4h-2.589l-2.3.647.72 1.619z" fill="#fff"/><path class="region" d="M437.773 633.948l-3.456.216-1.156 1.623h-3.6l-1.3 2.05h-2.736l-2.448-2.59-1.728-1.295-3.744.971-1.44 2.482-4.752 2.158 1.3 1.835-2.16 1.619h-3.024l-2.88 1.727v3.022l3.024.432 3.312 1.619 4.176.432 1.872 2.806 4.32 1.079-.864 3.238 2.88 2.158 3.744.324 3.744 3.777 2.736-1.727h2.736l.72-2.914-2.592-1.942.576-2.59-1.44-1.4.864-1.943 3.312-.755 3.888-3.022 4.9-2.59-.864-4.748-3.312-2.482-3.024 1.511-1.584-1.842 1.3-1.835z" fill="#fff"/><path class="region" d="M444.825 625.099l-1.872 2.482v2.158l-2.592 1.4-2.592 2.806-3.456.216-1.152 1.619h-3.6l-1.3 2.05h-2.736l-2.448-2.59-1.728-1.295-1.728-3.993 1.728-1.727-4.32-1.727-3.168-4.64-1.728-6.259 3.312-3.453 2.16.648 2.016-1.511 4.032-.863 2.448.971 2.736 2.05 3.168-.432v-2.05l1.3-.971 3.456 1.727 3.6-1.835 2.16 2.59 3.024.432v1.943l-1.008 2.158.864 2.158-1.152 3.022.576 2.914z" fill="#fff"/><path class="region" d="M446.553 644.74l-.864-4.748-3.312-2.482-3.024 1.511-1.584-1.835 1.3-1.835-1.3-1.4 2.736-2.806 2.448-1.4v-2.158l1.872-2.482 3.744-.432.432-1.943 3.024-.432 1.008.755 4.32-.216 1.3-.971 3.744.54 2.16.647 2.592-.432 1.008-.863 2.736.216h2.88l2.3 1.4-.864 2.158 3.6.863.576 2.374 2.592.54 3.024 3.777v3.238l2.3 1.187 1.584 1.187v1.727l.864 1.619-2.3 1.727-2.88.54-1.44 1.187-2.3 1.619h-2.736v1.4l-2.16 1.619-2.736 1.4-2.3-.755-2.736-2.266-2.3.108-2.736-1.943-2.736 2.266-4.32-.432-1.584-3.022-4.464-.971z" fill="#fff"/><path class="region" d="M444.968 679.382l3.456-1.187 2.3-.108 2.3-1.727 4.176-1.727 4.752-2.158 1.44-1.835h3.888l.576-5.612-2.016-2.7.864-4.748-.864-2.806 2.3-1.727 2.736-2.266-2.736-2.266-2.3.108-2.736-1.943-2.736 2.266-4.32-.432-1.584-3.022-4.464-.971-3.456.216-4.9 2.59-3.888 3.022-3.312.755-.864 1.943 1.44 1.4-.576 2.59 2.592 1.943-.72 2.914h-2.723l-2.736 1.727 2.16 1.511-1.3 2.806 2.88 2.158 4.608 1.4 1.584 2.266 2.736 2.05zm44.783-37.339l2.592 2.05h4.464l1.152 2.482 2.3 1.727v3.453l3.024 2.266 1.152 2.914 3.888.863 1.872-2.266h5.76l1.152-.971 4.032-.216-.576 2.266 1.728 1.295h2.448l1.44 2.158-2.445 2.591 1.152 1.943-2.016 1.511-.576 2.59-6.192.647-2.3-1.835-3.888 2.05-3.312-.324-3.168-2.374-3.024-2.158h-4.752l-1.44.971-4.9-3.238v-3.453l-3.744-2.914h-2.88l-4.32-1.295-2.16-1.619-2.592.647-.432-2.266 2.736-1.4 2.16-1.619v-1.4h2.736l3.744-2.806 2.88-.54z" fill="#fff"/><path class="region" d="M470.887 650.784l2.3.755.432 2.266 2.592-.648 2.16 1.619 4.32 1.3h2.88l3.744 2.914v3.453l4.9 3.238 1.44-.971h4.752l6.192 4.533 3.312.324 2.3 2.59v4.533l-2.3 1.727v2.482l1.872 1.4-1.008 1.943-1.728.648-2.3 3.13-2.88 3.13-2.736-2.59-3.6.755h-3.024l-5.04-1.943-5.472-1.727-3.32-1.73-1.152-3.13-5.04.108-3.744-2.482-2.592-.755-2.16-1.619-.432-2.158-3.6-1.4 1.44-1.835h3.888l.576-5.612-2.016-2.7.864-4.748-.864-2.806z" fill="#fff"/><path class="region" d="M503.86 691.145l1.872 2.806 3.024 2.374h8.352l2.88 2.158 2.3 3.13v3.241l4.9 1.079 1.3 4.856 4.464 3.346-.864 3.885 3.456 2.59 1.584 1.943-.144 2.05-5.9-.863-3.024 2.266-5.472 1.511-4.9-2.051h-5.04l-2.3 2.7h-10.661l-1.152 2.05-3.168 2.266-.432 3.453-5.9-.863-3.456-2.59v-3.561l1.581-3.567-2.592-1.835h-4.032l-.144-3.669-3.024-2.158-.576-2.7h-3.456l-2.3-1.727-1.008-3.561-3.312-.971-1.872 1.295-3.168-2.266 4.464-3.13-.72-4.964-5.76-4.1-4.752.108v-2.158l-3.168-1.295-5.472-.432-1.44-4.317.288-3.13 1.872-1.3-2.016-3.669 3.456-1.187 2.3-.108 2.3-1.727 4.176-1.727 4.752-2.158 3.6 1.4.432 2.158 2.16 1.619 2.592.755 3.744 2.482 5.04-.108 1.152 3.13 3.312 1.727 5.472 1.727 5.04 1.943h3.024l3.6-.755z" fill="#fff"/><path class="region" d="M524.887 664.597l6.336 3.238v3.022l4.9-.863 3.6 1.187 3.744 2.806 3.456 2.266 3.744-1.079 1.872 1.511 1.3 4.209 3.456 2.59 1.3 2.266-3.312 3.777-4.464 1.619-2.16 1.511-3.6-3.669-5.04-1.511-2.3 1.727-4.464-3.669-3.024 2.374-4.176-.755-3.168 2.374v3.993l2.16 1.619-.72 2.806-4.32.54-2.88-2.158h-8.352l-3.024-2.374-1.872-2.806 2.88-3.13 2.3-3.13 1.728-.648 1.008-1.943-1.872-1.4v-2.482l2.3-1.727v-4.533l-2.3-2.59 3.888-2.05 2.3 1.835 6.192-.648.576-2.59z" fill="#fff"/><path class="region" d="M577.877 697.405l-1.731-2.914 1.152-2.374-5.9-3.777h-3.888l-2.736 2.05-6.192-4.64-3.312 3.777-4.464 1.619-2.16 1.511-3.6-3.669-5.04-1.511-2.3 1.727-4.464-3.669-3.024 2.374-4.176-.755-3.168 2.374v3.993l2.16 1.619-.72 2.806-4.32.54 2.3 3.13v3.238l4.9 1.079 1.3 4.856 4.452 3.342-.864 3.885 3.456 2.59 1.584 1.943h8.5l2.448-3.777 4.608-2.482 2.736.54 1.44-2.374 6.48-.863 3.312-5.72 5.472-2.266 4.176-3.13zm121.676 12.841l6.336-3.13 3.744 1.187h3.024l3.6 1.187 2.592-.755 3.312 4.209 5.616-3.237h5.184l1.872 1.835-2.736 3.777 4.176 4.425 2.88.755v3.993l3.744.54 2.736 2.051h4.176l1.44 2.374 3.312.324-.864 3.346 9.5 4.425.72 5.4-2.88 3.022h-5.9l-5.328 1.079-4.32-1.727-5.328.647h-6.48l-6.192-2.374h-2.448l-2.88 2.05-4.752.755-4.608-1.835h-4.036l-5.472-1.295-8.208.216 1.3-2.59 3.456-2.7-1.872-3.561h-4.752l-.72-1.619-3.024-.108-2.736-2.05.864-2.482h3.164l2.3-1.727-1.44-3.453 2.448-1.727h4.032l2.3-2.7-.72-4.533zm-31.823-11.115l-3.024 2.374-2.88-3.13h-3.456l-5.616-3.022-3.024-3.237-2.736.863-3.024-.755-1.872-4.856-4.032-.54-2.016-3.345h-4.9l-5.04-2.914v-2.158l-2.88-.863-2.592 1.943-9.36 1.943-1.44 1.187 2.016 2.374v2.374l-5.04 2.806h-3.6l-2.736.971-1.44-1.079-2.592.971.864 2.482v1.511l1.584 1.295-1.872 1.4-3.024 2.266h-2.736l-.864 1.727-1.728 2.05-2.88.863 1.152 1.619-.144 4.641 1.728 1.4-1.3 4.964 2.736 1.3 3.168 2.374 2.016 3.993v3.885l1.584 2.482-1.3 2.482v3.453l-1.008 1.727 2.736 1.187 2.592-1.835h4.032l1.44 1.943-1.44 2.7-3.888 1.187.864 1.4 2.592.432-.72 3.561-1.584 1.187.864 2.7h2.3l.432 1.619 2.88 2.158 2.88-1.079 2.16-1.619 2.448.971 1.008 1.835 2.448 1.4 3.168.647 3.024-1.835 2.016-3.561 1.44-1.835 3.744-1.295.72-2.7 3.168-4.425h2.592v-3.13l3.168-3.13v-2.039l4.9-3.669 3.744-.971v-1.3l4.032-.216 1.728 1.727h2.736v-3.453l-1.584-3.993-5.9-1.4-2.592 1.3-5.9-.432-3.024-3.669-.72-4.856-2.3-1.727-1.008-3.453 5.184-2.914 3.6.863 4.032 1.4 2.592 2.05v2.482l5.04 1.3 3.168-2.374 5.472-.971v-2.158l2.88-3.993 1.152-2.806zM495.079 570.493v-3.561l1.3-3.022-3.456-.863-3.888.648-5.04-1.835 1.728-1.3.72-2.59-3.168-3.777-3.456-.863 2.592-3.885 2.592-1.943 4.608.54 1.44-1.619 3.024-.647 3.168-2.914 1.3-2.482 2.16-3.022 5.472-2.266 3.6-3.885 2.584 1.083 4.464-1.727 3.888-1.079 4.032.54 3.456 1.187 3.888-.647 3.172 1.506.288 1.619 3.312 2.806-3.6 5.4.432 1.727-1.872 1.4 1.3 4.964 2.736 1.3v2.266l3.744 1.4 1.008 1.835 1.584.755 2.16 1.619h2.448l2.016 1.511.864 2.05 4.9.216 3.6.647 1.584 1.187 3.024.647 1.152 2.266 2.88 2.05 1.872 1.079v1.835l2.016.54h4.032v-1.187l2.016.432h2.592v2.374l1.584 1.187h1.428v1.511l2.88 1.079 1.728 1.3 2.592-1.835.72-1.619 2.592.863 1.872 2.374-2.016 1.511 2.736 1.187v1.079h2.016l2.592.755-1.152.863 3.024 2.914-5.328 3.885-3.168 2.482-4.608-1.511-2.448 1.727 5.184 4.1-3.312 1.3v3.238l-1.584 1.187-5.62-3.675-2.88 3.453-5.328-.971-2.16 1.727-3.312-3.561-4.752-2.05-4.032-1.4-1.728-3.561-4.752-3.453-6.192-.863-3.168-5.072-4.9 1.727-5.184-1.727-5.9 1.079-5.328 1.727-5.616-4.209v-7.123l-4.464-3.453-2.448 1.835-5.9-3.13-2.592-1.943-4.32.324z" fill="#fff"/><path class="region" d="M490.471 572.004l4.608-1.511 3.024-.432 4.32-.324 2.588 1.94 5.9 3.13 2.448-1.835 4.464 3.453v7.123l5.616 4.209v3.13l-6.192.216-1.584 2.482h-3.168l-4.608 3.669h-2.876l-1.3 2.482-4.9-.755-2.3-1.727h-5.472l-3.312 2.482h-4.032l-2.016 1.511-2.736-2.158-2.732-1.512-.432-1.835-.72-2.158 1.728-1.511 2.736-2.05 4.752-2.158-1.728-2.914v-1.727l2.592-2.05-1.152-3.13 1.44-2.266h3.456z" fill="#fff"/><path class="region" d="M585.796 606.862l2.88-2.482-5.616-3.669-2.88 3.453-5.328-.971-2.16 1.727-3.312-3.561-8.784-3.453-1.728-3.561-4.752-3.453-6.192-.863-3.168-5.072-4.9 1.727-5.184-1.727-5.9 1.079-5.328 1.727v3.13l-6.192.216-1.584 2.482h-3.166l-4.608 3.669h-2.882l-1.3 2.482 3.168 2.374h4.176l2.16 1.619 3.312-2.59 1.872.324 1.584 3.345 5.184 2.482h3.168v4.1l4.608 1.727v3.345l5.76.971 7.344-1.4 2.736-2.05h4.176l1.733 3.015 2.592 1.942h4.464l1.728 1.187 3.744-2.806 5.76-1.511 2.448 1.835 2.88-2.266h6.624z" fill="#fff"/><path class="region" d="M487.735 599.738l3.312-2.482h5.472l2.3 1.727 4.9.755 3.168 2.374h4.176l2.16 1.619 3.312-2.59 1.872.324 1.584 3.345 5.184 2.482h3.168v4.1l4.608 1.727v3.345h-4.752l-2.016 3.669h-4.752l-3.456-2.59-2.736 2.05-1.152 3.777-3.168 2.374-6.192.54-5.184 1.187 2.016-5.612 2.592-4.748-6.336-4.748-3.6-2.7-6.048-1.511v-2.59l2.016-2.806z" fill="#fff"/><path class="region" d="M481.687 601.253l2.016-1.511h4.032l2.448 3.022-2.016 2.806v2.59l6.051 1.507 3.6 2.7 6.336 4.748-2.592 4.748-2.016 5.612-4.9.647-2.88 2.266-4.032.648-2.736 2.05-3.024-3.777-2.592-.54-.576-2.374-3.6-.863.864-2.158-2.3-1.4v-2.59l1.584-.54.72-1.835.288-3.346-1.872-1.4-2.3-.755-1.152-1.727v-2.266l-2.16-.755-1.152-2.374 2.592-1.511-.144-2.374 2.016-1.511.864-2.266 2.736-.971.432 1.835 2.736 1.511z" fill="#fff"/><path class="region" d="M484.999 636.322v-3.238l2.736-2.05 4.032-.648 2.88-2.266 4.9-.647 5.184-1.187 6.192-.54 3.168-2.374 1.152-3.777 2.736-2.05 3.456 2.59h4.752l2.016-3.669h4.744l5.76.971 7.344-1.4 2.736-2.05h4.176l1.728 3.022 2.594 1.941h4.462l1.728 1.187 5.04 2.806 6.192 4.64-3.744 2.914-2.88 2.158-5.184-2.266-4.032.648-2.88 2.05-3.456 3.777-6.48-3.022-3.024 2.266-5.04-.108.432 3.993-2.448 1.835 2.3 3.238-6.912 3.022v4.317l-4.464 2.914-2.16 2.59h-2.448l-1.728-1.3.576-2.266-4.032.216-1.152.971h-5.76l-1.872 2.266-3.888-.863-1.152-2.914-3.024-2.266V648.3l-2.3-1.727-1.152-2.482h-4.456l-2.592-2.051-.864-1.619v-1.727z" fill="#fff"/><path class="region" d="M526.182 660.069l-1.44-2.158 2.16-2.59 4.464-2.914v-4.317l6.912-3.022 4.176 1.511h8.784l.72 3.345 2.736 2.05-1.3 2.806 2.736 3.777-5.9 1.187-5.472 2.374v4.425l-4.608 1.187-4.176-1.187-4.752 1.3-6.336-3.238-1.152-1.943zm26.351-23.206l3.456-3.777 2.88-2.05 4.032-.648 5.184 2.266 6.624-5.072-6.192-4.64-5.04-2.806 3.744-2.806 5.76-1.511 2.448 1.835 2.88-2.266h6.624l.864-8.526 2.88-2.482 1.584-1.187v-3.238l3.312-1.295-5.184-4.1 2.448-1.727 4.608 1.511 8.5-6.367 2.592-1.727 1.872.432 4.464 4.1-.864 1.943 2.16.863.432 2.7-2.88 2.266v3.561l-4.608.755v2.374l-3.168 2.374v2.7l2.448 1.943v2.7l1.152 2.806-1.584 2.482 1.728 1.295 2.736-2.482 1.728-3.669 4.176-.755 4.464 1.511 2.736 2.05 3.744-2.7 2.016 1.511 1.152 2.05 3.6-.324 2.16-1.727h3.888l2.3 1.727 4.32 1.511 3.168 2.482 2.736 1.619-.72 3.13-4.032 2.59-3.744 1.079-4.32 3.238v2.914l2.448 1.835-1.3 2.914v3.022l-5.184 2.482h-4.32l-.144-3.669-4.9.216-5.616-4.1-4.464 2.374-2.736 3.453-1.3 3.13-3.024 2.266h-4.032l-2.448-1.727-4.32 3.453v5.18l-4.032 3.022-2.88 2.158-2.16 4.1-4.032-3.453-1.3-4.425v-2.806l-1.152-2.7v-5.72l-4.032-1.727-1.728-4.209-5.184-.755-4.032-1.835-1.711 2.265-2.736-2.05-4.32 1.835-3.888-1.835z" fill="#fff"/><path class="region" d="M543.03 636.11l3.024-2.266 6.48 3.022 2.736 3.13 3.888 1.835 4.32-1.835 2.736 2.05 1.728-2.266 4.032 1.834 5.184.755 1.728 4.209 4.032 1.727v5.72l1.152 2.7-4.176 1.727-2.88-2.158h-5.328l-2.16-1.727-5.616 2.482-7.776 1.511-2.736-3.777 1.3-2.806-2.736-2.051-.72-3.345h-8.789l-4.176-1.511-2.3-3.238 2.448-1.835-.432-3.993z" fill="#fff"/><path class="region" d="M609.844 682.619l2.016 2.374v2.374l-5.04 2.806h-3.6l-2.736.971-1.44-1.079-2.592.971.864 2.482v1.511l1.584 1.295-4.9 3.669h-2.736l-2.592 3.777-2.88.863-2.736-2.05 2.736-2.158-4.032-3.022h-3.888l-1.723-2.914 1.152-2.374-5.9-3.777h-3.896l-2.736 2.05-6.192-4.641-1.3-2.266-3.456-2.59-1.3-4.209-1.872-1.511-3.744 1.079-7.2-5.072-3.6-1.187-4.9.863v-3.022l4.752-1.3 4.176 1.187 4.608-1.187v-4.425l5.472-2.374 5.9-1.187 7.776-1.511 5.616-2.482 2.16 1.727h5.328l2.88 2.158 4.176-1.727v2.806l1.3 4.425 4.032 3.453 4.9.432 2.3 2.374 4.176 1.4 1.584 1.835h2.88l.432 3.345 3.312 1.835-3.168 1.4.288 1.511z" fill="#fff"/><path class="region" d="M591.556 663.302l6.912-5.18v-5.18l4.32-3.453 2.448 1.727h4.032l3.024-2.266 1.3-3.13 2.736-3.453 4.464-2.374 5.616 4.1 4.9-.216.144 3.669h4.32l-1.152 3.993-.144 4.533-3.024 3.993-.72 4.425-2.736 4.533-7.92 3.022v2.051l3.168 3.453-2.592 1.943-9.36 1.943-1.44 1.187-3.744-1.079-.288-1.511 3.168-1.4-3.312-1.835-.432-3.345h-2.88l-1.584-1.835-4.176-1.4-2.3-2.374-4.9-.432zm229.097-123.566h-2.736l-4.9 3.022-4.176.216-1.872 3.345-6.336-.755-1.728 2.05-2.736 2.05-2.736 1.187-5.472 1.4-4.608.863-5.328-2.05-2.88.432-3.306-2.048-6.336-1.943-6.48-3.13-4.752-1.4-7.776-2.266-3.888-2.914-4.608-.324-7.632-3.669-3.744-2.914-5.9-1.943-5.76-3.669-5.184.432-4.032 2.05-24.911.108-2.592 1.943-1.44 2.7-1.584 1.295v1.187l-1.728 1.295-2.16 1.619 1.008 1.511 2.736 2.05 1.152 1.727-1.584 2.482.72 2.374 1.872 1.4-2.16 2.7-2.16 1.619-1.44-1.079h-2.16l-3.026-1.841-3.168-.54-2.448-1.187-3.312.863-2.736 1.079-.72-2.7-3.744-2.914-3.6-1.511-4.032-.647-2.016-1.511-2.88-.755-3.312-1.835h-3.024l.576 2.374v2.158l2.448 2.7 2.592 1.943-1.008 2.482v2.59l-3.168 1.511-1.008 2.806 1.872 1.295.432 2.806-.576 1.619-3.456-.54-2.736.54-.864 1.727-1.152.863.432 1.943-2.88 1.079.432 3.13 2.448.863 2.3.54 2.016 1.619 2.16-2.374 1.584.432 1.3-2.266 3.168-.54h2.16l1.584 1.187 2.448-.863.144 2.374 2.016 1.619-2.88 2.158-2.16.755-3.168 2.374-3.744 1.727-.287 1.627-2.88 1.3-1.872 1.4 2.592 2.05-2.016 2.59-2.3 1.295-2.16 1.835-2.3-.324-.576-1.511h-3.751l-2.016-.432.144 1.3-3.024.647.432 2.7-2.88 2.266v3.561l-4.608.755v2.374l-3.168 2.374v2.7l2.448 1.943v2.7l1.152 2.806-1.58 2.471 1.728 1.295 2.736-2.482 1.728-3.669 4.176-.755 4.464 1.511 2.736 2.05 3.744-2.7 2.016 1.511 1.152 2.05 3.6-.324 2.16-1.727h3.888l3.744-1.079v-2.161l-2.448-1.835 2.3-3.238 4.752 1.943 1.724-1.19 1.728 1.187 2.3-1.727 3.168.863 1.152 1.4-.432 2.374 2.448 2.266 3.024-.863 5.328 1.835 3.312 2.482 3.888-1.4 4.32 1.187 2.3-1.835 2.448.648 1.728 1.3 2.448-.648 1.44-2.266h2.6l5.472 2.806 5.472 2.158 6.048 1.727 8.352.971 1.3-2.59 2.16-1.619.864-3.237 5.9-4.425v-2.482l2.016-2.806-.864-3.13 3.168-4.533 4.9-2.266.576-3.238 5.76-2.7-1.008-3.993 2.16-3.022 5.04-3.777 3.6-2.7 3.168.755v2.806l4.032-.324 4.608-3.453 4.464-1.727 2.448-2.158 4.608-.54 6.336.216v-3.993l7.632-3.238 7.632-1.187h8.208l1.728-3.993h4.464l4.32-3.238 5.76-2.158-3.6-2.806 4.32-1.3v-2.374l-4.752-1.835.72-3.345 1.872-.648 1.152-2.05z" fill="#fff"/><path class="region" d="M640.946 645.064l-5.184 2.482-1.152 3.993-.144 4.533-3.024 3.993-.72 4.425-2.736 4.533-7.92 3.022v2.051l3.168 3.453 2.88.863v2.158l5.04 2.914h4.9l2.016 3.345 4.032.54 1.872 4.856 3.024.755 2.736-.863 3.168-2.59 1.872-1.4v-3.13l1.584-2.374 1.44 1.079h4.752l3.888-1.511 1.152-3.345 2.448-3.13h3.312l2.88 3.238 1.728-1.4 2.592-1.943-1.872-1.4-.144-1.727 4.32-2.158 4.176.648 2.88-1.835 3.024-2.158-2.592-2.05v-1.295l2.448-1.835 1.584-3.993-3.024-3.669v-4.641l3.888-2.482h4.176l3.312-2.482 3.6-3.993 4.752-3.238 2.736-5.072v-3.561l4.9-1.943v-2.806l-8.352-.971-6.048-1.727-5.481-2.17-5.472-2.806h-2.592l-1.44 2.266-2.448.648-1.728-1.3-2.448-.647-2.3 1.835-4.32-1.187-3.888 1.4-3.312-2.482-5.328-1.835-3.024.863-2.453-2.255.432-2.374-1.152-1.4-3.168-.863-2.3 1.727-1.728-1.187-1.728 1.187-4.752-1.943-2.3 3.238 2.448 1.835v2.158l-3.744 1.079 2.3 1.727 4.32 1.511 3.168 2.482 2.736 1.619-.72 3.13-4.032 2.59-3.744 1.079-4.32 3.238v2.914l2.448 1.835-1.3 2.914zm601.326 186.698l-8.352-.863-3.456-1.619-10.944 1.187h-6.912l-5.616 4.209-6.192 1.079-6.048 1.3-8.64-.54-5.9-1.943-3.744-2.806-3.456-5.5-4.464-3.238-6.192-1.835h-6.048l-6.768 1.295-4.752-3.453h-9.36l-5.472-3.022-2.736 2.05-.288-3.453-2.3-1.727-.864-3.022 2.448-1.942v-3.13l2.88-2.158 6.336-4.748 1.584-1.187 2.16-1.619 3.456 1.511-.72 2.374 4.464 1.619 2.736 1.943 5.9 1.3 2.736 2.05 3.024 1.187 3.456 2.59 7.632-1.187 2.88 2.266 3.6 2.266h3.888v2.59l2.592 3.238h6.912l1.3 3.238 5.328-2.266h4.032v-5.288l5.472-4.209 6.48-5.72 3.312-6.259 8.5-6.367 9.648-8.741 1.44-12.842 3.456-8.418-5.184-1.295-2.736-9.713-2.3-7.878 1.728-2.59 2.592-1.943-4.176-2.158-4.032-.863-1.44-4.856 7.632-4.209h3.744v-3.669l3.6-1.187 5.184 1.295 5.472-1.4v-3.561l3.744-2.05 2.016 1.619h6.048l3.6-1.835 2.3 1.727 7.488 1.079 3.024-2.266 3.312 1.3 4.752-3.561h3.6v-7.015l4.32-1.619 2.736-4.209 4.464.755 2.16 1.619-5.184 3.669v4.856l4.464 1.727 1.872 4.317 2.88 2.59 1.728 4.641 4.176 3.345 3.744-1.079 5.328 1.943 3.744 2.806 1.44 2.806-2.16 5.5-5.472 1.187-4.464 3.453-3.456 4.1-2.448 4.209-4.032 3.022-3.024 4.425 1.872 4.425 3.744.863v2.158l2.88 2.158-1.584 4.425-9.232 6.675-5.328 1.835-3.168 2.374-4.176 1.187-1.008 5.18-3.312 2.374-3.6 1.079-2.3 6.151h-3.744l-4.752-.54-6.192 4.64-3.312 1.3-2.736-.863h-2.592l-2.736 2.05v3.345l2.016 1.727-3.168.971v6.367l4.32-.432 2.88 2.158-7.92 5.828 1.008 3.345z" fill="#fff"/><path class="region" d="M1392.028 772.624l1.44-7.77 1.872-3.022-1.872-5.72-3.312-2.59-3.024-2.266-3.744 2.266-2.592-2.483 1.872-3.561 2.592-5.935 3.744-2.806 7.632-3.346-3.456-4.532-1.584-2.266h-4.176l-1.152-3.885-2.016-2.374 3.6-1.619v-1.295h-1.872l-3.312-2.59-2.592-.216.576-4.64-1.584-2.05-1.728-3.453-3.744-1.511-2.736 2.914-2.88-.863-.288-3.022-1.872-1.4-2.88-.647-2.88 2.266-1.44 2.7-5.04-.971-1.44-2.266 2.88-2.7-1.728-2.05-3.312.755-4.176-.755-2.88-2.266v-2.158l-3.888-.755v-3.13l-3.6-.971-3.744-3.669-5.328-1.4-1.152-4.1-2.448-1.943-2.88 1.727h-3.024l-2.16-1.727-3.888-.216-4.176 3.13 1.728 1.3-1.872 3.13 2.16 1.619-1.872 3.669 6.912 5.18 3.888-1.187v2.266l1.728 1.187-.864 3.561-3.744 1.727-2.16 3.13-5.472-1.079-3.6 1.511-4.32-.324v4.856l4.464 1.727 1.872 4.317 2.88 2.59 1.728 4.64 4.176 3.345 3.744-1.079 5.328 1.942 3.744 2.806 1.44 2.806-2.16 5.5-5.468 1.176-4.464 3.453-3.456 4.1-2.448 4.209-4.032 3.018-3.024 4.425 1.872 4.425 3.744.863v2.158l2.88 2.158-1.584 4.425-5.616 3.993-3.6 2.7-5.328 1.835-3.168 2.374-4.176 1.187-1.008 5.18-3.312 2.374-3.6 1.079-1.152 3.453-1.152 2.7h-3.744l-4.752-.54-6.192 4.64-3.312 1.295-2.736-.863h-2.592l-2.736 2.05v3.345l2.016 1.727-3.168.971v6.367l4.32-.432 2.88 2.158-7.92 5.828 1.008 3.345 3.456 2.59 1.872 2.7 6.48 1.619 7.2-.755h9.792l7.056-1.619h7.632l3.024-2.266 5.9-4.425 7.632-2.7 5.472-2.806 4.32-3.238 2.016-5.288 8.64-6.475 5.9-1.943 4.608 1.3 5.04 1.943 6.768-2.914 4.752-2.158 6.48.971 8.928.54 7.92-2.158 4.608-3.561 3.312-5.612 5.04-1.079v-5.072l-2.16-1.619-3.6-5.18 2.592-5.072z" fill="#fff"/><path class="region" d="M1316.862 671.504l-2.016-4.1-3.024-.216v-2.59l-3.168-2.59-2.592-1.943h-3.888v2.7l-3.312 2.59-5.328-.647v-2.59l-2.16-1.4v-3.238l-4.752-.54-5.328-1.835-5.184.432-5.04-.54-2.88 2.59-1.44 3.453-3.312 2.59 1.3 3.453-1.728 4.1-4.464 3.346v6.259l-6.336 3.238v3.777l-2.736-2.806v-3.13l-3.174-2.377-3.024.971-.72 2.914-7.92 2.266h-3.736l-1.44 3.346-2.448 2.7-5.184.324-5.76-4.317-.576-9.065.72-5.4v-4.964l.864-4.533v-4.425l-4.176-1.295-3.024-.755-.432-2.158-1.3-2.482-2.736-2.05v-2.374l1.872-1.4.432-3.346-2.592-1.942h-3.456l-3.744-1.4v-2.59l1.44-1.079-1.584-1.187-1.3-3.993-3.024-3.993-3.6-1.943-4.032.863-3.888.216v-3.453l3.168-.647v-2.374l-3.312-2.482-1.3 2.05-2.016 1.511-2.88-.54-3.168 2.374-3.168.971-2.016 3.238v3.345l1.728 3.453-1.44 3.022v2.482l4.176 3.13 2.592 1.943-1.152 2.7-1.728 2.158 3.168 2.266-3.024 2.158-2.16 1.187v4.739l-2.448 1.187-1.008 3.238-4.176 1.295 1.008 4.317-1.728 1.295-.72 3.993 1.008 3.561 2.448.863 4.032 3.022 1.584-1.295 3.888 1.079v3.245l1.3 2.7-2.592-.324-1.872 2.482-1.44 2.05.864 1.727h3.888l1.728 2.806 1.3 2.59-2.16 1.619-2.16 2.7v2.374l-1.3 2.05h-3.456l-3.018-2.274h-4.032l-1.584-2.05-3.744-1.187-.864-1.943-3.024-.54-4.176 1.942-1.152 3.561 2.16 3.777-3.168 3.561-5.328 3.885-3.456 3.777-1.3 3.885-1.872 3.345 3.456 2.482-3.312 1.727-4.608-2.374-2.3-4.1-4.032-2.914-3.744 1.4-1.584 3.885-6.048 1.619-4.752-.54-5.04.863-.144 5.4-2.736 2.051v5.072l3.312 2.59 2.3 4.1v2.266l-3.744 1.511-1.728 3.237h-3.456l-.864 3.346-1.728 2.914 2.592 2.806.144 2.914-1.872 1.079v4.1l1.008 2.374-1.728 2.266.576 2.914-6.912.324v2.158l-3.024-.324-1.152 2.158 4.464 2.158 6.912 5.18 3.168 1.4h4.32l3.6 2.05 5.472.54 4.464 3.237 3.024 1.079h5.328l2.16-1.619 4.464 3.345 10.08-7.554 3.888 1.835-1.152 2.05 4.464 1.619 2.736 1.943 5.9 1.295 2.736 2.05 3.024 1.187 3.456 2.59 7.632-1.187 6.48 4.533h3.888v2.59l2.592 3.238h6.912l1.3 3.238 5.328-2.266h4.032v-5.288l5.472-4.209 6.48-5.72 3.312-6.259 8.5-6.367 9.648-8.741 1.44-12.842 3.456-8.418-5.184-1.295-5.04-17.591 1.728-2.59 2.592-1.943-4.176-2.158-4.032-.863-1.44-4.856 7.632-4.209h3.744v-3.669l3.6-1.187 5.184 1.295 5.472-1.4v-3.561l3.744-2.05 2.016 1.619h6.048l3.6-1.835 2.3 1.727 7.488 1.079 3.024-2.266 3.312 1.295 4.752-3.561h3.6V706.9l4.32-1.619 2.736-4.209 4.464.755 2.16 1.619-5.184 3.669 4.32.324 3.6-1.511 5.472 1.079 2.16-3.13 3.744-1.727.864-3.561-1.728-1.187v-2.266l-3.888 1.187-6.912-5.18 1.872-3.669-2.16-1.619 1.872-3.13-1.728-1.3 4.176-3.13 3.888.216 2.16 1.727h3.024l2.88-1.727.864-1.943z" fill="#fff"/><path class="region" d="M1316.862 671.504l-2.016-4.1-3.024-.216v-2.59l-3.168-2.59-2.592-1.943h-3.888v2.7l-3.312 2.59-5.328-.647v-2.59l-2.16-1.4v-3.238l-4.752-.54-5.328-1.835-5.184.432-5.04-.54-2.88 2.59-1.44 3.453-3.312 2.59 1.3 3.453-1.728 4.1-4.464 3.346v6.259l-6.336 3.238v3.777l-2.736-2.806v-3.13l-3.174-2.377-3.024.971-.72 2.914-7.92 2.266h-3.736l-1.44 3.346-2.448 2.7-5.184.324-5.76-4.317-.576-9.065.72-5.4v-4.964l.864-4.533v-4.425l-4.176-1.295-3.024-.755-.432-2.158-1.3-2.482-2.736-2.05v-2.374l1.872-1.4.432-3.346-2.592-1.942h-3.456l-3.744-1.4v-2.59l1.44-1.079-1.584-1.187-1.3-3.993-3.024-3.993-3.6-1.943-4.032.863-3.888.216v-3.453l3.168-.647v-2.374l-3.312-2.482-1.3 2.05-2.016 1.511-2.88-.54-3.168 2.374-3.168.971-2.016 3.238v3.345l1.728 3.453-1.44 3.022v2.482l4.176 3.13 2.592 1.943-1.152 2.7-1.728 2.158 3.168 2.266-3.024 2.158-2.16 1.187v4.739l-2.448 1.187-1.008 3.238-4.176 1.295 1.008 4.317-1.728 1.295-.72 3.993 1.008 3.561 2.448.863 4.032 3.022 1.584-1.295 3.888 1.079v3.245l1.3 2.7-2.592-.324-1.872 2.482-1.44 2.05.864 1.727h3.888l1.728 2.806 1.3 2.59-2.16 1.619-2.16 2.7v2.374l-1.3 2.05h-3.456l-3.018-2.274h-4.032l-1.584-2.05-3.744-1.187-.864-1.943-3.024-.54-4.176 1.942-1.152 3.561 2.16 3.777-3.168 3.561-5.328 3.885-3.456 3.777-1.3 3.885-1.872 3.345 3.456 2.482-3.312 1.727-4.608-2.374-2.3-4.1-4.032-2.914-3.744 1.4-1.584 3.885-6.048 1.619-4.752-.54-5.04.863-.144 5.4-2.736 2.051v5.072l3.312 2.59 2.3 4.1v2.266l-3.744 1.511-1.728 3.237h-3.456l-.864 3.346-1.728 2.914 2.592 2.806.144 2.914-1.872 1.079v4.1l1.008 2.374-1.728 2.266.576 2.914-6.912.324v2.158l-3.024-.324-1.152 2.158 4.464 2.158 6.912 5.18 3.168 1.4h4.32l3.6 2.05 5.472.54 4.464 3.237 3.024 1.079h5.328l2.16-1.619 4.464 3.345 10.08-7.554 3.888 1.835-1.152 2.05 4.464 1.619 2.736 1.943 5.9 1.295 2.736 2.05 3.024 1.187 3.456 2.59 7.632-1.187 6.48 4.533h3.888v2.59l2.592 3.238h6.912l1.3 3.238 5.328-2.266h4.032v-5.288l5.472-4.209 6.48-5.72 3.312-6.259 8.5-6.367 9.648-8.741 1.44-12.842 3.456-8.418-5.184-1.295-5.04-17.591 1.728-2.59 2.592-1.943-4.176-2.158-4.032-.863-1.44-4.856 7.632-4.209h3.744v-3.669l3.6-1.187 5.184 1.295 5.472-1.4v-3.561l3.744-2.05 2.016 1.619h6.048l3.6-1.835 2.3 1.727 7.488 1.079 3.024-2.266 3.312 1.295 4.752-3.561h3.6V706.9l4.32-1.619 2.736-4.209 4.464.755 2.16 1.619-5.184 3.669 4.32.324 3.6-1.511 5.472 1.079 2.16-3.13 3.744-1.727.864-3.561-1.728-1.187v-2.266l-3.888 1.187-6.912-5.18 1.872-3.669-2.16-1.619 1.872-3.13-1.728-1.3 4.176-3.13 3.888.216 2.16 1.727h3.024l2.88-1.727.864-1.943zm-534.656 77.161l-2.16-3.238h-6.048l-4.752-2.158-5.328-.324-.72-5.4-9.5-4.425.864-3.346-3.312-.324-1.44-2.374h-4.179l-2.736-2.05-3.744-.54v-3.993l-2.88-.755-4.176-4.425 2.736-3.777 3.168-1.727-1.3-3.238 1.872-1.4-1.008-3.885 4.176-3.13 3.6.648 2.88-2.158 3.168.971 5.616-2.05v-3.021l-1.152-2.374 1.44-3.453 3.312 1.943h5.04l3.744-.863v-2.374l1.872-1.4 6.624 1.4 2.736-2.05h7.2l2.016-1.511 3.888-1.079 4.032-1.079 1.872-1.4-.288-2.914h2.736l3.168 2.05 2.88 1.079 3.312 2.482h3.6l4.608.863 3.744 2.914 2.736 3.561 3.312 3.993v3.238l4.752.54v3.022l2.448 1.835 4.032 1.079 2.448 1.727h4.32l3.024 2.05h3.888l-2.16 2.266-3.888 2.914-4.752 1.619h-5.76l-3.6-.755-4.032-1.619-2.592 1.727h-3.888l-3.168-1.511-2.592-.863-4.176-.971-3.312-.863v-2.163l2.448-1.727-3.888-2.806-3.6 1.835-2.16 2.7-2.88 2.158-.288 2.914 1.584 3.561-3.744 1.4v2.05l3.168 1.187 2.3 1.727 1.152 2.05 3.6 1.511v2.38l-1.728 1.295-4.608.648-2.592 1.943-3.456 2.59v3.124l-.864 1.835-2.592 1.943-2.016.216v2.482l-2.448 1.835-1.3 2.05v2.158z" fill="#fff"/><path class="region" d="M732.96 709.707h-5.183l-5.616 3.237-3.312-4.209-2.592.755-3.6-1.187h-3.024l-3.744-1.187-6.336 3.13-2.448-1.943-2.592-1.943-3.456-1.4-3.024 2.158-3.312-2.374-3.168-.324-.864-1.3-4.32-1.079-1.3-1.835-4.032-2.05-3.312.971-3.024 2.374-2.88-3.13h-3.456l-5.616-3.022-3.024-3.238 3.168-2.59 1.872-1.4v-3.13l1.584-2.374 1.44 1.079h4.752l3.888-1.511 1.152-3.345 2.448-3.13h3.312l2.88 3.237 1.728-1.4 2.592-1.943-1.872-1.4-.144-1.727 4.32-2.158 4.176.648 2.88-1.835 3.024-2.158-2.592-2.05v-1.3l2.448-1.835 1.584-3.993-3.024-3.669v-4.641l3.888-2.482h4.176l3.312-2.482 3.6-3.993 4.752-3.238 2.736-5.072v-3.561l4.9-1.943v-2.806l1.3-2.59 2.16-1.619 3.312 1.511v2.266l2.016 1.511 2.16 1.079 3.168 2.374 5.611 4.317 3.6 4.856 2.88 2.158v4.856l-2.448 2.374 1.3 5.612-1.584 4.533 3.168 2.266v3.669l-2.88 2.05 1.008 4.209 4.032 1.511 2.88 2.59.144 2.914h2.736l2.88 2.05-1.584 2.158v4.1l2.736 2.05-1.44 3.453 1.152 2.374v3.022l-5.616 2.05-3.168-.971-2.88 2.158-3.6-.648-4.176 3.13 1.008 3.885-1.872 1.4 1.3 3.238-3.168 1.727z" fill="#fff"/><path class="region" d="M777.598 572.759l-.432 5.936 1.008 4.851-1.872 4.425-4.464 3.345 2.3 1.727 4.032 3.022 4.752 3.561 6.48-1.079 5.04 1.619 5.04-1.619 5.472 2.158 5.472 3.561-4.176 3.13 3.6 3.022 6.48.863 3.312-2.482 3.6 2.7 2.592-1.943h6.48l5.76 4.317 1.3 4.856v3.13l5.472 4.1-1.152 3.561 1.728 3.561 8.352-.755h4.032l3.6 4.317h4.032l4.752 3.777 4.032-.755 5.9 1.187 3.888 2.914 2.3-1.727 6.48 1.942-1.728 3.453 5.04 1.943 3.888 2.914h17.279l1.872-2.482 4.32-1.835 5.04-2.482 1.872 3.777 4.9 4.748 2.3-1.727 6.912 1.619 3.6 4.533 3.6-.863h3.312l5.04 4.641.144 5.5 6.048 3.022 6.768 2.266-3.6 4.425-8.64 2.806-5.472 4.1-8.928-4.856-9.5 3.022-1.728 4.425-6.336-2.482-4.608.863-5.472-4.1-6.048 1.727-7.632-.648-2.016-2.374h-8.208l-5.76-1.835-7.632.863-2.88 4.209-2.736 5.18.432 5.612-7.92 1.619-6.48 3.561-.72 3.777-6.768 3.022h-4.032l-3.024-2.05h-4.32l-2.3-1.727-4.032-.971-2.448-1.835v-3.13l-4.9-.54v-3.238l-3.312-3.885-2.732-3.663-3.744-2.806-4.752-.971h-3.6l-3.312-2.482-6.192-3.13h-2.736l.288 2.914-1.872 1.4-7.776 2.051-2.016 1.511h-7.2l-2.736 2.05-6.624-1.4-1.872 1.4v2.482l-3.744.863h-4.752l-3.312-1.942-2.736-2.05v-4.209l1.44-2.05-2.736-2.05h-2.736l-.144-2.914-2.736-2.59-4.03-1.616-1.008-4.1 2.88-2.158v-3.561l-3.168-2.374 1.3-3.669-1.008-6.367 2.448-2.374v-4.856l-2.88-2.158-3.456-4.856-5.616-4.209-3.168-2.374-4.032-2.59v-2.482l-3.312-1.619.864-3.13 5.9-4.425v-2.482l2.016-2.806-.864-3.13 3.312-4.64 4.9-2.266.576-3.238 5.76-2.7-.864-3.885 2.16-3.13 4.9-3.669 3.744-2.806 3.024.863v2.806l4.176-.432 4.464-3.345 4.464-1.727 2.592-2.158 3.888-.54z" fill="#fff"/><g class="region"><path class="region" d="M1101.013 410.019l-.864.971 2.016.971.864-1.187zm-9.359-14.57l-2.16.971 3.024 1.187 2.16 1.079 2.448-.432-.72-2.158-2.3.432zm-21.312-7.986v-2.266l.144-4.1-1.44-2.266-2.16.108-3.024 2.806.144 2.482-1.3 1.619.864 4.425-2.592 1.943.144 4.317-1.3 3.777-1 3.776 1.872.863 4.176-2.482 2.448-1.187 5.472-2.05 4.32-.324 5.472-3.13 2.592-3.777-1.728-3.238-2.016-2.482-2.592.863-2.596-3.456-2.016-1.511-2.3 2.158zm-19.584-17.483l-2.016 1.835-1.728 2.482-1.584-.54 1.152-3.13v-3.238l-4.752 1.187-3.456.648-3.888.971-1.584 2.482-.864 2.158-2.016 1.835.72 2.158-3.744 2.158 1.728 1.187 2.592-.648 2.16 2.266.288 2.158 2.016 1.835 5.04.324.72 2.158 3.456-1.619 1.728 2.158 4.752 1.3 4.608-1.619 2.16-2.266-1.728-2.59-2.88-2.914 2.16-1.187.864-2.806-1.152-3.13.432-3.13-5.184-2.482zm-3.888 49.966l-2.3 1.943-2.736.432 2.592 1.511 2.592-1.943zm-36.43-.647l-1.152 1.3 1.584.971 2.016-2.158zm-22.464 44.678l-2.592.971 1.152 2.158 2.016-.647-.576-2.482zm-18.719-14.676l-2.448 1.511 1.44 1.943 2.16-.324zm-.864 21.367l-.432 1.835h3.744l1.872 1.4.288-2.374-2.16-.324zm-12.671-96.802l-1.3.971 1.584.648 2.3 1.3.72-1.619zm-13.248 113.745l-1.584 1.511 1.008 1.943 1.44 1.511 2.16-1.835.864-2.05-1.872-1.511zm31.678-134.897l-1.872.324-1.152.863 1.728 1.4 2.448-.648 1.44-1.079zm41.183-2.699l-1.584 1.295 1.152.863 1.44 1.079 2.736-1.943v-1.4zm17.28-1.726l-.576 2.7-3.168 1.079-4.9 2.482v3.345l2.016 1.511-2.736 1.943-1.584 2.482 2.3 2.374.864 2.482 4.176 2.7 3.744-2.7h2.592l3.744-1.619 4.464-1.079-1.3-3.238v-4.1l2.736-1.727-2.3-1.619-4.464-3.453-1.728-2.7zm-10.656 22.45l-3.024-.324.576 3.022v1.835l3.888.863 1.584 1.187 2.448-1.835 1.44-2.59-2.448-1.4zm-48.094 69.065l-1.152.863 1.584.971 2.448-.54z" fill="#fff"/><path class="region" d="M1136.148 538.549l1.3 2.374 1.872 3.13 4.176 2.158.432 5.935 4.176 5.72v2.374l1.008 4.533 1.3 7.015-3.6.755-2.448 2.914-2.3 1.727 1.3 3.022 1.3-.971 4.464 1.4v2.914l1.584 1.187-1.584 1.079v3.13l4.176 1.727 1.3 4.964 4.9 3.669-1.584 3.453-2.88 3.345 1.152 2.7v2.378l-1.44 1.079v3.561l2.592.863h3.888l2.016-1.511h2.3l2.16 1.942 4.32-1.187 3.312 1.079 2.592-1.943 3.456.216.144 2.158-1.3 2.05-2.016 1.511-2.88-.54-3.168 2.374-3.312.863-1.872 3.238v3.347l1.728 3.561-1.44 3.022v2.59l4.176 3.13 2.592 1.943-1.152 2.59-1.728 2.158 3.024 2.266-2.88 2.158-2.16 1.187v4.748l-2.592 1.187-1.008 3.238-4.176 1.295 1.152 4.317-1.872 1.4-.72 3.993 1.152 3.561 2.448.863 4.032 3.022 1.584-1.187 3.888 1.079v3.13l1.3 2.7-2.592-.324-1.872 2.482-1.44 2.05.864 1.727h3.864l1.872 2.914 1.3 2.59-2.16 1.619-2.3 2.7v2.374l-1.152 2.05h-3.6l-2.88-2.158h-4.04l-1.584-2.05-3.744-1.295-.864-1.943-3.168-.54-4.176 1.942-1.008 3.561 2.16 3.669-3.312 3.561-5.184 3.885-3.6 3.777-1.3 3.885-1.872 3.345 3.312 2.482-3.312 1.727-4.608-2.374-2.3-4.1-4.032-3.022-3.744 1.4-1.584 3.885-6.048 1.619-4.752-.647-5.04.971-.144 5.4-2.88 2.158v5.072l3.312 2.482 2.3 4.1v2.375l-3.744 1.4-1.728 3.237h-2.88l-1.008 3.345-1.584 2.914 2.592 2.914.144 2.914-1.872.971v4.209l1.012 2.376-1.584 2.266.576 2.914-6.912.324v2.266l-3.024-.432-1.152 2.266 4.464 2.158 6.768 5.072 3.168 1.4-1.3 2.266-2.592-.755-2.012 1.515-5.328-.216-4.608 3.453-6.336-.863-2.3 1.727-1.44 6.475-5.616 1.079v3.022l-3.6 2.7v4.64l-5.04 1.079-7.056 4.64-5.04 1.619h-3.744l-4.9-1.943h-5.472l-5.616-1.511-4.176-3.13 1.728-1.835 2.16-3.993 4.32-1.4 3.888-2.914-.576-3.669 3.888-2.914 1.44-3.669-1.44-2.914v-3.453l-5.04-3.777-1.584-4.317-4.9-3.669 1.584-4.856-1.44-2.158-4.608 1.187-7.056-.54-2.16 1.619-4.752-.647-4.608-3.669-2.736-3.453 4.32-3.238 2.88-.863-.288-5.18-2.592-3.669-3.312-.863-1.872-1.3-.72-2.914 1.152-3.777v-5.4l3.168-4.1 5.328-1.943-.72-4.1-6.48-1.619h-4.032l-1.152-2.914-3.6-4.317 2.3-4.64 7.776-6.259-2.448-1.835-6.912.324-1.44-4.1-4.592-3.452-2.88-3.238-5.76-1.079h-7.632l-6.48 1.3-5.328-1.3-1.44-3.561 4.32-3.238-4.608-7.339 5.472-4.1 8.64-2.806 3.6-4.425-6.768-2.266-6.048-3.022-.144-5.5 5.616-4.209 2.016-1.511.432-4.1 3.456-2.59v-4.533l-3.6-3.777 2.448-3.453 3.456-3.346 3.312-2.482-1.728-2.914 1.008-3.777-1.008-4.317-2.736 2.05-2.736-2.05-5.472-.863-1.152-3.777 2.448-1.835-.432-4.1-2.16-3.238-2.88-2.158h-2.88l-2.592-3.561 2.16-1.3v-3.236l-1.728-2.158v-1.835l3.308-2.267-2.016-3.13-5.328-2.374v-2.482l-2.156-1.614 2.016-2.7-.72-3.238-2.3-1.727.144-2.914 3.312.54.864-2.158 2.592-1.943 1.584-3.453-1.872-2.7h1.872l1.3-2.59-2.3-4.1v-2.807l-3.744-.54.144-3.561-2.892 2.051-1.44-1.079-2.88 1.943-1.584-1.187-.576-2.374-4.608-.54-3.024-2.266-.72-1.943-2.16-1.619-.288-3.345 4.32-2.482 3.6-2.7 1.872-2.158h4.752v-6.259l.432-4.317-5.184-2.158-1.584-2.266-1.008.971-1.44-2.374 3.312-2.482 4.608-.54-.432-1.943 2.3-1.727-.864-2.374-3.312-1.4-3.024-.432-2.016-1.511-1.008-1.943h-2.16l-.284-2.155 4.752.755 4.032-.432 3.312 2.482 6.192 2.482-1.728 3.561 1.584 1.187 4.176 3.13h6.48l1.008-2.914-2.592-2.7.288-2.482-4.608-1.3-3.312-4.1-1.872-1.4 1.44-4.317 2.16-3.561-1.872-1.4-1.152-4.533 4.752-3.238h11.232l5.76 1.619v-1.079h9.36l6.192-1.943h4.608l2.448-1.835-2.448-2.7-2.88-.755-2.448-1.835 2.736-2.05 1.872 1.4 2.88-.54-1.872-1.619 1.3-2.266-2.016-1.511 2.448-2.482 3.312-1.943-3.312-.216-.288-2.7 6.768.216 2.592-4.1 6.624-1.943 2.592-1.943 9.072-.971 2.3-1.727 6.48-1.4 1.44-1.3-4.32-1.079 2.448-1.835 6.192-1.079 5.328-.54 1.152-1.943 4.32-.54-2.3 3.238v2.59l3.024-2.266 7.488.216.72-2.914 4.752-.755 4.752.755-2.16-2.158-2.88-1.619-1.44-1.942h5.328l5.472-1.3h1.728l-.432-3.022-1.872-1.079v-4.317l1.152-2.914 3.6-6.691 4.32-2.374 3.888-3.022 4.752 2.158 3.6-.324 1.152 3.669-3.756 2.82-3.168 3.022 7.632.324 1.44-1.079h4.752l3.456 2.59-3.168 2.374 1.152 2.374 5.328 1.3 1.152-3.022-2.16-1.619 5.328-2.158h4.756l4.9-2.59 2.736 2.05 3.744-1.4 2.736 2.05 2.448 3.561 2.88 1.835 1.728-1.4 2.592 1.943 3.312 2.482-.432 3.777-4.752-.755 1.872 1.4 4.752 1.943 3.024 3.885-2.736 2.05v3.561l-2.448 2.482-2.3 3.561-2.736 2.05-4.752 4.317v1.835l-1.44 5.072-3.6 2.7-1.44 5.612-5.76 1.079-1.872 4.1-4.032 3.022-1.008 4.64-1.152 3.238 4.32-1.4-1.008-3.561 4.32-1.943 6.048-.863 2.88-3.238 4.032-2.482 3.888-1.079 2.3-3.345-1.872-1.4-2.88-.216.288-1.4-.288-2.914 3.6-.216h2.88l.576 3.13 1.872 1.187-.432 1.727-1.584 1.3 1.152 2.05 2.16 2.374 2.016 1.511-.864 3.561 1.728 2.7 4.9 1.4v1.943l6.48 3.561 3.024 2.266v4.425l3.456 4.856h3.744l.432 3.669h-2.032l-1 2.461-4.608 3.453-4.032 2.05.144 3.669v2.806l-3.6.971-1.3 3.561 2.736 2.05v3.022l-1.44 2.482-4.9-1.079-3.6.863-5.184 5.5-5.04 1.511-.288 1.4" fill="#fff"/></g><path class="region" d="M955.577 684.239l2.736 4.209 2.016 3.022-4.32 3.237 1.44 3.669 5.184 1.187 6.48-1.187h7.777l5.76 1.079 2.88 3.238 4.464 3.345 1.44 4.209 7.056-.432 2.3 1.835-4.032 3.453-3.744 2.7-2.3 4.64 3.6 4.317 1.3 2.914h4.032l6.48 1.619.72 4.1-5.328 1.943-3.028 4.207v5.4l-4.608 1.4-5.04 3.777-2.592-1.943-5.328 2.158-4.32-1.511h-5.04l-8.208 5.4h-8.352l-4.9 1.943-6.048-.324-6.192 4.964-2.592-1.943 2.16-1.727-1.872-1.4v-3.345l-.864-4.641-3.024-1.079-3.456 2.59-5.76 1.079h-4.9l-4.176-4.317h-10.359l-4.752-4.964-3.312-2.374-4.032-3.022-6.48-2.051-5.328-2.158-6.48-.648h-6.045l-2.88-2.158-5.184-.971-1.44-3.13-2.736-3.993.864-4.533-2.736-2.158v-3.561l2.592-4.748-.72-1.727 6.768-3.022.864-3.777 6.48-3.561 7.92-1.619-.432-5.612 5.616-9.5 7.776-.863 5.76 1.943h8.208l2.016 2.266 7.776.648 5.9-1.727 5.616 4.209 4.608-.863 6.336 2.374 1.728-4.425 9.5-3.022z" fill="#fff"/><path class="region" d="M997.912 753.527l-.72-2.806 1.3-3.777-4.608 1.4-5.04 3.777-2.592-1.942-5.328 2.158-4.32-1.511h-5.04l-8.208 5.4h-8.352l-4.9 1.943.72 5.935 1.728 2.482 1.152 5.4-.864 7.77 3.024 3.345 2.88 4.209h4.32l3.168 4.425 2.592 2.05 1.008 3.345 3.744 1.727h3.6l.144 2.482-3.6 1.187 2.016 2.7.576 3.453 1.44 3.022 4.608 3.13h4.752l4.032 1.619h2.449l.144 3.238h3.312v-3.022l3.312-2.482 4.176-3.13-2.16-1.619-1.584-2.278.576-1.943 1.728-1.4-2.3-2.266-2.3-1.727 4.32-4.856v-5.288l1.584-1.187v-2.163l-4.32-.54-2.736 2.05-3.312-2.59 4.32-.863v-3.346l1.008-2.806-2.3-3.669-1.728-3.561 3.6-2.374 4.32-3.238 2.88-.863v-4.64l-2.88-4.209-3.312-.863z" fill="#fff"/><path class="region" d="M998.919 768.631l2.736 3.453 4.464 3.777 4.752.648 2.16-1.619 7.056.54 4.608-1.187 1.44 2.158-1.584 4.856 4.9 3.669 1.44 4.209 5.04 3.777v3.453l1.44 2.914-1.44 3.777-4.032 2.914.576 3.669-3.888 3.022-4.32 1.4-2.16 3.993-1.728 1.835-5.184 2.05v3.993l-4.608 3.453-8.784-1.079-2.16 1.619h-2.448l-2.448 3.561h-3.888l-4.9-3.777 2.3-1.727-1.008-3.453 6.48-4.856h3.312v-3.019l7.488-5.612-2.16-1.619-1.584-2.266.576-1.943 1.728-1.4-2.3-2.266-2.3-1.727 3.888-4.533.432-5.612 1.584-1.187v-2.158l-4.32-.54-2.736 2.051-3.312-2.59 4.32-1.3v-2.914l1.008-2.806-2.3-3.669-1.728-3.561zm-677.354-32.052l-1.44-1.619-2.736-2.05-1.3.432v1.727l1.152 1.619 5.04 3.885h2.448l.72-.647 2.592 1.187 1.3 2.482-1.584 1.187-2.592-.108-1.44 2.05h-2.16v3.022l.864 1.727-.576 1.4h-5.328l-1.872-.647-2.016 1.619 3.6 3.345 1.44 1.835 1.008-.755 2.592-.324v-1.4l1.728-1.079 2.594-1.945 2.592-2.7 2.16-1.619 2.3-.755.864 2.374 1.3-2.05v-6.475l-1.584-.863-1.44-1.079-2.16-.863-.72-1.943-3.024-.755-1.3.54z" fill="#fff"/><g class="region"><path class="region" d="M1300.159 359.19l-.432-1.3 3.168 1.193 1.728-1.3 2.3-1.727 3.312-2.482 2.016 1.835h1.152l2.736-2.05 2.448-2.158 4.9-1.619 3.456 1.943-2.016 4.1v2.266l-2.3 1.727-3.6 1.187-3.888 1.187h-3.888l-3.024 2.158-4.608-1.187-2.448-2.59zm-8.064 3.453h-7.056l-2.3 1.727-3.456 1.835-2.744-1.943-6.336 1.511.576 2.914 1.584 1.187 2.3 1.835 1.728 1.187-2.448 1.511-3.168-2.158-1.872 1.3-2.3-1.727-5.472.755-2.448-.971-1.008 2.158 1.728 1.295-3.312 1.3v3.13l2.592 1.943-.576 2.266h2.3l3.168 2.266-.864 2.59 3.888 1.511 5.184.108 2.16 1.727h3.896l4.608-.971v-2.7l-2.736-1.943 1.44-1.079 2.3 1.619 4.032-5.4 3.744-2.914 1.728 1.3 3.456-2.59 1.152-2.482-4.024-.982-2.592 1.943-3.312-1.835-3.888-1.727-3.888-2.158 1.3-2.158 2.016-1.511 1.728 4.1 2.448 1.943 4.32.54 2.592-.755h2.16l2.16-1.727-1.008-3.345h-3.6l.864-2.914v-2.159zm3.601 28.706l-1.872 1.3 1.44 3.238 2.592 1.943 2.016-3.022v-2.482l-1.44-1.079zm8.926 2.914l-2.448 1.943 1.44 2.482 2.448 1.835-1.584 2.59 1.3.971 2.016-3.13 4.9-.755 4.464-1.3 5.9-2.7-3.175-4.202h-4.032l-5.9-1.4-2.736 1.835zm-48.958-7.015l-1.872-1.4-3.6-.216 2.3 1.727 1.44 3.885h2.88v-2.158zm-108.861 63.564l-4.032 3.022v2.05h3.312l1.152 1.943 2.88-.971 3.168-2.482v-3.885h-4.027zm141.981-114.933l-1.3 1.727 1.44 1.079 1.584-1.079zm-12.241 71.334l-4.032-.647-1.44.755 2.448.863 3.024 1.835 1.3-1.4z" fill="#fff"/><path class="region" d="M1469.354 354.441l-4.608 3.453v2.482l2.3 1.727h-4.752l-4.32 2.59-6.048 1.943-6.768-5.072-3.312-2.482-6.624.324-7.92.863-4.608 4.1-5.04 3.777-6.048 6.691v5.18l-4.752 4.533-4.608 3.453-5.04.216-4.608-1.835-6.48 2.7.72 4.1-4.608-3.561-3.312 2.914h-4.9l-1.728-1.943 3.6-3.238-4.32-2.374-7.2 2.374-5.04 1.835-2.16 4.533-1.008 2.482 1.44 5.72v3.453l-4.032 2.914 1.152-7.015-4.608-1.079-3.6 2.7-4.032 1.4 1.728-4.856 4.608-2.374-1.008-1.835-6.912 2.374-8.928 2.482-1.872 4.1-6.768 2.482h-4.608l-3.168 2.374 5.04 2.374.72 2.482-5.328 3.561v3.777l2.88 1.4 2.448-4.64 1.728 1.079v3.993l4.032 1.619 3.6 2.7 1.728.755-3.6 2.7-4.608-.216-2.592 2.158-2.016 1.511 5.632 1.944v2.7l-5.328-1.079-4.608.216-6.192 1.079-3.312 4.64 1.152 4.641h-6.048l-5.328 1.079-3.312-2.482-6.048-.54v3.238l3.168 2.374v2.482l1.44 2.7 2.448 5.935-.432 3.453-5.472-2.158-2.16 1.619-5.04-.755-3.6-1.835-4.752-3.561-4.9.108v-2.914l-2.16-1.619-2.592 1.835-3.312-2.374 1.872-1.4 3.168-.755v-4l-2.448-1.835-4.608 2.158v-3.453l-2.736-2.05h-2.736l1.876-4.426-5.76-1.4-1.728 1.295-5.328-3.022-2.3 1.727-1.584 3.345-1.872 1.079-1.872-1.619-1.872.324-1.008 2.158-3.888-1.943-2.592-1.943-3.024 1.727-2.88-2.158-.72 2.158-1.008 4.1 3.6 4.1.72 3.561v3.238l-6.48.755-5.04 3.238-5.04 1.4-2.88-3.453-.72 1.943-.288 1.4h-7.056l-4.032-3.022 1.728-1.3-1.872-2.05-7.2 1.619-9.072 1.3-6.048 2.374-4.464 3.345-2.3 1.727 3.312 2.374h-3.168l-2.88-3.022v-3.561l-2.592-1.943-3.024 3.13-1.008 2.158-4.752-1.4-4.032-.755.576 3.13 1.872 1.187-.432 1.727-1.584 1.3 1.152 2.05 2.16 2.374 2.016 1.511-.864 3.561 1.728 2.7 4.9 1.4v1.943l6.48 3.561 3.024 2.266v4.425l3.456 4.856h3.744l.432 3.669h-2.016l-1.008 2.482-4.608 3.453-4.032 2.05.144 6.475-3.6.971-1.3 3.561 2.736 2.05v3.02l-1.44 2.482-4.9-1.079-3.6.863-5.184 5.5-5.04 1.511v1.511l1.3 2.374 1.872 3.13 4.176 2.158.432 5.935 4.176 5.72v2.374l1.008 4.533 1.3 7.015-3.6.755-2.448 2.914-2.3 1.727 1.3 3.022 1.3-.971 4.464 1.4v2.926l1.584 1.187-1.584 1.079v3.13l4.176 1.727 1.3 4.964 4.9 3.669-1.584 3.453-2.88 3.345 1.152 2.7v2.374l-1.44 1.079v3.561l2.592.863h3.888l2.016-1.511h2.3l2.16 1.943 4.32-1.187 3.312 1.079 2.592-1.943 3.456.216.144 2.158 3.312 2.482v2.266l-3.168.647v3.453l3.888-.216 4.032-.863 3.6 1.943 3.024 3.993 1.3 3.885 1.584 1.187-1.44 1.079v2.59l3.744 1.3h3.456l2.592 1.942-.576 3.345-1.872 1.4v2.374l2.736 2.05 1.44 2.482.432 2.158 3.024.755 4.176 1.3v4.425l-.864 4.532v5.072l-.72 5.4.576 8.957 5.76 4.317 5.184-.324 2.448-2.7 1.44-3.345h3.744l7.92-2.266.72-2.914 3.024-.971 3.168 2.374v3.13l2.736 2.806v-3.669l6.336-3.238v-6.259l4.464-3.345 1.728-3.993-1.3-3.453 3.312-2.482 1.44-3.561 2.88-2.59 5.04.54 5.04-.432 5.328 1.942 4.608.432v3.238l2.3 1.511v2.59l5.184.54 3.312-2.482v-2.914h3.888l2.592 1.943 3.168 2.59v2.59l3.024.216 2.016 3.993 3.168 2.374 3.744 2.806-.864 1.943 2.448 1.835 1.152 4.1 5.184 1.511 3.744 3.669 3.6.863v3.13l3.888.755 4.176-3.13 4.608-2.914h4.608l2.16-1.619 2.592 1.943 3.6.54 1.584-1.187h4.752l2.016 1.943h3.024l.864-2.7 6.048.863 2.16-1.619 4.32-.648 4.032 1.4 5.04 3.777 3.888-1.3 4.32-.755 2.016-2.05 3.312 1.079 2.448-1.835h2.736l2.592 1.943 2.448-1.835 7.056-5.288 5.184.647v-2.479l6.48-1.835 4.608.647 4.752-2.266-.288-3.669 7.776-3.453 7.344-4.533-2.736-4.748v-3.561l-3.168-2.374 2.736-2.05.864-4.641-6.624-2.158h-5.328l-.576-2.374 3.744-.54-2.016-2.914 1.008-5.5-4.464-.54-4.464-3.453 3.888-.647.432-4.317-1.728-1.3-1.04-2.274 1.44-2.806-3.024-2.266 2.592-2.59-2.16-1.619v-3.885l4.9-1.943 3.312-1.4 3.888.324 3.168-2.374 4.32-1.3.576-3.13-2.736-2.05 1.584-3.022 5.616-.755 7.344-5.5-.288-6.151 5.184-1.3v-2.05l-5.184-3.885-1.152-2.806-5.76-4.317-3.744-.648-.72-3.453.864-4.209-2.88-2.158 4.46-4.307v-3.78l.288-4.748-2.3-1.727-1.152-3.345-2.16-1.619-.144-4.209 4.176-.648 3.6.648 4.608 1.943 4.608-1.835 3.744-.863 3.744-2.806 2.736-3.561 3.6.108 2.16-.971 1.584 1.187 2.016-.54v-3.022l-.288-4.964.72-3.345-3.6-2.7-.864-2.158-3.168-2.374-5.616-2.158-1.44-2.59-3.888-3.885v-2.158l-2.016-.648.864-3.561 1.584-1.187-2.736-2.05.72-3.13 6.336-1.943v-1.727l4.752.108-.432-3.993-3.6-.755-2.448-2.374 3.024-2.158h3.024v-2.806l3.024-1.619v-2.05l3.744-.648 2.3 2.05 3.168-.324 1.584-2.59-1.008-2.266 3.312-3.885 1.008-2.59 3.312-.432v-2.266l-1.584-3.238-3.888-1.727-3.744-2.806v-3.238l-.288-3.561-3.6-1.4-2.592-2.59v-3.022l2.88-.432-1.3-2.914-4.032-.863.72-2.7 4.176-1.187v-3.13l2.016-1.511h4.608l.432-3.669h6.048l2.448-1.835-1.44-3.669 2.16-3.022-2.88-3.453h-2.736l-2.592-3.777-2.88-2.158h-3.888l-4.9 1.187-4.464-1.511-4.752-.54v-4.209l-3.744-1.619-1.584-3.561 2.88-3.345v-3.669l3.312-1.727v-3.56l2.3-4.317 4.9-2.806-3.744-4.748-4.32-1.187-1.152-2.266-4.752-.432-5.76-1.511-2.016-1.943z" fill="#fff"/></g><path class="region" d="M455.335 491.496h22.031v5.288l2.592 6.691 9.072 19.641 5.616 1.943 3.456 4.748 2.592 7.554-3.456 5.5-3.168 2.914-3.024.324-1.44 1.943-4.608-.54-2.592 1.943-1.872-5.4-1.872-1.4-2.736-.755 1.44-2.158v-2.158l-3.024-1.079-.432-2.158-3.456-.108-2.016 1.511-2.592-2.482.72-4.64-2.16-.324-2.448-1.835-2.3 1.4-2.448.54-3.6-1.187-3.888-.324h-5.472l-1.728-2.482-2.016.755-1.728 1.3-3.168-.216-1.008-3.561 1.3-3.238-1.584-2.59-.144-2.59-3.168-2.374 1.584-2.374-2.88-2.59 4.752-2.158 6.48 1.079 1.008-2.7 2.16-1.619 4.032 1.511 3.312 2.7 5.328 1.187 1.872 3.238-.72.647v.971l-1.152 3.238 1.728-.216 2.16 1.187.864-.54h1.001l2.16-.755v-1.4l1.152-1.079v-1.3l-.72-.647-1.584 1.4-.576-5.288-4.32-2.806v-6.151l3.888-.755 1.152-.863-5.184-1.619z" fill="#fff"/><path class="region" d="M477.368 491.497v5.288l2.592 6.691 9.072 19.641 5.616 1.943 3.456 4.748 2.592 7.554 5.472-2.266 3.6-3.885 2.592 1.079 4.464-1.727 3.888-1.079 4.032.54 3.456 1.187 3.888-.648 3.168 1.511.288 1.619 3.312 2.806 1.872-1.619 1.728-.324 4.752-3.453.72-2.914-.432-2.482 4.032-.863 1.728-3.669-4.608-3.453.72-4.425 1.152-2.05 3.024-1.187 1.44-2.482-.288-2.806 1.44-1.187 1.872 1.727 1.008-.755 2.592 1.187 3.024-3.238 3.456-4.533-3.6-8.418 4.464-3.345 1.872-6.367 4.608-3.561 5.9-1.3 3.312-5.612 1.008-3.993-3.456-2.59 2.592-1.943-.144-4.64-2.88.216-2.592-1.187-4.032.755-2.592-1.943 1.3-2.59.576-3.238-11.52-7.77-8.928 12.411-4.032-1.511-8.5 5.072-3.744.216v6.043l-4.32 1.3v4.64l-5.76 3.453h-6.768l-1.724 11.871v4.641l-10.08 2.7z" fill="#fff"/></g></svg>